<svg width="103" height="135" viewBox="0 0 103 135" fill="none" xmlns="http://www.w3.org/2000/svg">
<g filter="url(#filter0_ddddd_3953_2408)">
<path d="M70.9999 52.4999H65.913L65.913 59.0486C67.0367 58.4796 68.0496 57.8089 68.8716 57.0251C70.0465 55.9048 70.9999 54.3765 70.9999 52.4999Z" fill="white"/>
<path d="M37.087 52.4999H32C32.0053 54.3694 32.9567 55.9079 34.1284 57.0251C34.9504 57.8089 35.9633 58.4796 37.087 59.0487L37.087 52.4999Z" fill="white"/>
<path d="M34.1284 39.9284C34.9504 40.7122 35.9633 41.3829 37.087 41.9519C37.562 42.1925 38.0568 42.4149 38.5653 42.62C42.0027 44.0063 46.5769 44.8064 51.5 44.8064C56.4232 44.8064 60.9974 44.0063 64.4347 42.62C64.9432 42.4149 65.438 42.1925 65.913 41.9519L65.913 35.4044C65.913 35.4275 65.9052 35.6976 65.3764 36.2019C64.8298 36.723 63.9024 37.3105 62.5455 37.8578C60.6158 38.636 58.0707 39.2314 55.1539 39.5077C53.99 39.6179 52.7669 39.6774 51.5 39.6774C47.0584 39.6774 43.1543 38.9466 40.4546 37.8578C39.0977 37.3105 38.1703 36.723 37.6237 36.2019C37.0957 35.6984 37.0871 35.4271 37.087 35.4032H34.5435H34.2926C32 35.4032 32 35.4035 32 35.4035C32.0002 37.28 32.9536 38.8082 34.1284 39.9284Z" fill="white"/>
<path d="M65.913 41.9519C65.438 42.1925 64.9432 42.4149 64.4347 42.62C60.9974 44.0063 56.4232 44.8064 51.5 44.8064C46.5769 44.8064 42.0027 44.0063 38.5653 42.62C38.0568 42.4149 37.562 42.1925 37.087 41.9519L37.087 52.4999C37.0876 52.5333 37.1066 52.8056 37.6236 53.2986C38.1702 53.8197 39.0976 54.4072 40.4545 54.9545C43.1543 56.0433 47.0583 56.7741 51.5 56.7741C55.9416 56.7741 59.8457 56.0433 62.5454 54.9545C63.9023 54.4072 64.8297 53.8197 65.3763 53.2986C65.9052 52.7943 65.9129 52.523 65.913 52.4999L65.913 41.9519Z" fill="white"/>
<path fill-rule="evenodd" clip-rule="evenodd" d="M65.913 52.4999C65.9129 52.523 65.9052 52.7943 65.3763 53.2986C64.8297 53.8197 63.9023 54.4072 62.5454 54.9545C59.8457 56.0433 55.9416 56.7741 51.5 56.7741C47.0583 56.7741 43.1543 56.0433 40.4545 54.9545C39.0976 54.4072 38.1702 53.8197 37.6236 53.2986C37.1066 52.8056 37.0876 52.5333 37.087 52.4999L37.087 41.9519C35.9633 41.3829 34.9504 40.7122 34.1284 39.9284C32.9536 38.8082 32.0002 37.28 32 35.4035L32 52.4999V69.5968C32 71.4734 32.9535 73.0017 34.1284 74.122C35.2979 75.2372 36.8537 76.1233 38.5653 76.8136C42.0026 78.1999 46.5768 79 51.5 79C56.4231 79 60.9973 78.1999 64.4346 76.8136C66.1463 76.1233 67.7021 75.2372 68.8716 74.122C70.0465 73.0017 70.9999 71.4734 70.9999 69.5968V52.4999C70.9999 54.3765 70.0465 55.9048 68.8716 57.0251C68.0496 57.8089 67.0367 58.4796 65.913 59.0486L65.913 52.4999ZM37.087 59.0487C37.562 59.2892 38.0568 59.5116 38.5653 59.7167C42.0026 61.103 46.5768 61.9031 51.5 61.9031C56.4231 61.9031 60.9973 61.103 64.4346 59.7167C64.9432 59.5116 65.438 59.2892 65.913 59.0486L65.913 69.5971C65.913 69.6125 65.9137 69.8831 65.3763 70.3955C64.8297 70.9166 63.9023 71.5041 62.5454 72.0514C59.8457 73.1402 55.9416 73.871 51.5 73.871C47.0583 73.871 43.1543 73.1402 40.4545 72.0514C39.0976 71.5041 38.1702 70.9166 37.6236 70.3955C37.0863 69.8831 37.0869 69.6122 37.087 69.5968L37.087 59.0487ZM37.087 59.0487C35.9633 58.4796 34.9504 57.8089 34.1284 57.0251C32.9567 55.9079 32.0053 54.3694 32 52.4999H37.087L37.087 59.0487Z" fill="white"/>
<path d="M65.913 59.0486C65.438 59.2892 64.9432 59.5116 64.4346 59.7167C60.9973 61.103 56.4231 61.9031 51.5 61.9031C46.5768 61.9031 42.0026 61.103 38.5653 59.7167C38.0568 59.5116 37.562 59.2892 37.087 59.0487L37.087 69.5968C37.0869 69.6122 37.0863 69.8831 37.6236 70.3955C38.1702 70.9166 39.0976 71.5041 40.4545 72.0514C43.1543 73.1402 47.0583 73.871 51.5 73.871C55.9416 73.871 59.8457 73.1402 62.5454 72.0514C63.9023 71.5041 64.8297 70.9166 65.3763 70.3955C65.9137 69.8831 65.913 69.6125 65.913 69.5971L65.913 59.0486Z" fill="white"/>
<path d="M37.087 35.4032C37.0871 35.4271 37.0957 35.6984 37.6237 36.2019C38.1703 36.723 39.0977 37.3105 40.4546 37.8578C43.1543 38.9466 47.0584 39.6774 51.5 39.6774C52.7669 39.6774 53.99 39.6179 55.1539 39.5077C58.0707 39.2314 60.6158 38.636 62.5455 37.8578C63.9024 37.3105 64.8298 36.723 65.3764 36.2019C65.9052 35.6976 65.913 35.4275 65.913 35.4044C65.9131 35.389 65.9137 35.1169 65.3764 34.6045C64.8298 34.0834 63.9024 33.4959 62.5455 32.9486C59.8457 31.8598 55.9417 31.129 51.5 31.129C47.0584 31.129 43.1543 31.8598 40.4546 32.9486C39.0977 33.4959 38.1703 34.0834 37.6237 34.6045C37.0863 35.1169 37.087 35.3878 37.087 35.4032Z" fill="white"/>
<path d="M32 35.4035C32 35.4035 32 35.4032 34.2926 35.4032H34.5435H37.087C37.087 35.3878 37.0863 35.1169 37.6237 34.6045C38.1703 34.0834 39.0977 33.4959 40.4546 32.9486C43.1543 31.8598 47.0584 31.129 51.5 31.129C55.9417 31.129 59.8457 31.8598 62.5455 32.9486C63.9024 33.4959 64.8298 34.0834 65.3764 34.6045C65.9137 35.1169 65.9131 35.389 65.913 35.4044L65.913 41.9519L65.913 52.4999H70.9999L71 35.4032C71 33.5266 70.0465 31.9983 68.8716 30.878C67.7021 29.7628 66.1463 28.8767 64.4347 28.1864C60.9974 26.8001 56.4232 26 51.5 26C46.5769 26 42.0027 26.8001 38.5653 28.1864C36.8537 28.8767 35.2979 29.7628 34.1284 30.878C32.9535 31.9983 32 33.5269 32 35.4035Z" fill="white"/>
</g>
<path fill-rule="evenodd" clip-rule="evenodd" d="M41.6285 18.5152C38.7805 26.5253 37 37.6568 37 50C37 62.3432 38.7805 73.4747 41.6285 81.4848C43.0541 85.4943 44.7284 88.668 46.5375 90.8202C48.3509 92.9774 50.2012 94 52 94C53.7988 94 55.6491 92.9774 57.4625 90.8202C59.2716 88.668 60.9459 85.4943 62.3715 81.4848C65.2195 73.4747 67 62.3432 67 50C67 37.6568 65.2195 26.5253 62.3715 18.5152C60.9459 14.5057 59.2716 11.332 57.4625 9.1798C55.6491 7.0226 53.7988 6 52 6C50.2012 6 48.3509 7.0226 46.5375 9.1798C44.7284 11.332 43.0541 14.5057 41.6285 18.5152ZM45.0066 7.89285C47.0216 5.49579 49.3805 4 52 4C54.6195 4 56.9784 5.49579 58.9934 7.89285C61.0126 10.2949 62.7861 13.7113 64.2559 17.8452C67.1987 26.1219 69 37.4904 69 50C69 62.5096 67.1987 73.8781 64.2559 82.1548C62.7861 86.2887 61.0126 89.7051 58.9934 92.1071C56.9784 94.5042 54.6195 96 52 96C49.3805 96 47.0216 94.5042 45.0066 92.1071C42.9874 89.7051 41.2139 86.2887 39.7441 82.1548C36.8013 73.8781 35 62.5096 35 50C35 37.4904 36.8013 26.1219 39.7441 17.8452C41.2139 13.7113 42.9874 10.2949 45.0066 7.89285Z" fill="#2A4DBE"/>
<path fill-rule="evenodd" clip-rule="evenodd" d="M19.3796 24.8593C16.6047 25.3511 14.794 26.4422 13.8946 28C12.9952 29.5578 12.9556 31.6715 13.9171 34.3205C14.8764 36.9634 16.7878 40.0002 19.5473 43.2396C25.0602 49.7111 33.8101 56.8188 44.4997 62.9904C55.1892 69.162 65.7196 73.1858 74.0806 74.7244C78.2657 75.4945 81.8513 75.6314 84.6198 75.1407C87.3947 74.6489 89.2054 73.5578 90.1048 72C91.0042 70.4422 91.0437 68.3285 90.0822 65.6795C89.123 63.0366 87.2116 59.9997 84.452 56.7604C78.9391 50.2889 70.1892 43.1812 59.4997 37.0096C48.8101 30.838 38.2798 26.8142 29.9188 25.2756C25.7337 24.5055 22.148 24.3685 19.3796 24.8593ZM30.2808 23.3086C38.92 24.8984 49.666 29.0227 60.4997 35.2775C71.3333 41.5323 80.2781 48.7765 85.9745 55.4634C88.8197 58.8033 90.8916 62.0474 91.9622 64.9971C93.0306 67.9407 93.1466 70.7314 91.8368 73C90.5271 75.2685 88.0523 76.5635 84.9688 77.11C81.879 77.6577 78.0336 77.4854 73.7186 76.6913C65.0794 75.1015 54.3333 70.9772 43.4997 64.7224C32.666 58.4676 23.7212 51.2234 18.0248 44.5365C15.1797 41.1966 13.1077 37.9526 12.0371 35.0029C10.9687 32.0593 10.8528 29.2685 12.1625 27C13.4723 24.7314 15.9471 23.4365 19.0305 22.89C22.1204 22.3423 25.9657 22.5146 30.2808 23.3086Z" fill="#2A4DBE"/>
<path fill-rule="evenodd" clip-rule="evenodd" d="M74.0811 25.2756C65.7201 26.8142 55.1898 30.838 44.5002 37.0096C33.8107 43.1812 25.0608 50.2889 19.5479 56.7604C16.7883 59.9998 14.8769 63.0366 13.9177 65.6795C12.9562 68.3285 12.9957 70.4422 13.8951 72C14.7945 73.5578 16.6052 74.6489 19.3801 75.1407C22.1486 75.6315 25.7343 75.4945 29.9193 74.7244C38.2803 73.1858 48.8107 69.162 59.5002 62.9904C70.1898 56.8188 78.9397 49.7111 84.4526 43.2396C87.2121 40.0003 89.1235 36.9634 90.0828 34.3205C91.0443 31.6715 91.0047 29.5578 90.1054 28C89.206 26.4422 87.3952 25.3511 84.6203 24.8593C81.8519 24.3686 78.2662 24.5055 74.0811 25.2756ZM84.9694 22.89C88.0528 23.4365 90.5277 24.7315 91.8374 27C93.1471 29.2686 93.0312 32.0593 91.9628 35.0029C90.8922 37.9526 88.8203 41.1967 85.9751 44.5366C80.2787 51.2235 71.3339 58.4677 60.5002 64.7224C49.6666 70.9772 38.9205 75.1016 30.2813 76.6914C25.9663 77.4854 22.1209 77.6577 19.0311 77.11C15.9476 76.5635 13.4728 75.2686 12.1631 73C10.8533 70.7315 10.9693 67.9407 12.0377 64.9971C13.1083 62.0474 15.1802 58.8034 18.0254 55.4635C23.7218 48.7766 32.6666 41.5324 43.5002 35.2776C54.3339 29.0228 65.0799 24.8985 73.7192 23.3087C78.0342 22.5146 81.8795 22.3423 84.9694 22.89Z" fill="#2A4DBE"/>
<g filter="url(#filter1_b_3953_2408)">
<path d="M72.9999 50.4999H67.3912L67.3913 57.79C68.6302 57.1565 69.747 56.4099 70.6533 55.5374C71.9487 54.2903 72.9999 52.5889 72.9999 50.4999Z" fill="#DDE6FF" fill-opacity="0.7"/>
<path d="M35.6087 50.4999H30C30.0058 52.581 31.0549 54.2937 32.3467 55.5374C33.253 56.4099 34.3698 57.1565 35.6087 57.79L35.6087 50.4999Z" fill="#DDE6FF" fill-opacity="0.7"/>
<path d="M32.3467 36.5052C33.253 37.3777 34.3698 38.1243 35.6087 38.7578C36.1325 39.0256 36.678 39.2732 37.2387 39.5015C41.0286 41.0447 46.0719 41.9354 51.5 41.9354C56.9281 41.9354 61.9715 41.0447 65.7613 39.5015C66.322 39.2732 66.8676 39.0256 67.3913 38.7578L67.3913 31.4691C67.3912 31.4948 67.3827 31.7954 66.7996 32.3568C66.1969 32.937 65.1744 33.591 63.6783 34.2002C61.5507 35.0665 58.7447 35.7293 55.5287 36.0368C54.2454 36.1596 52.8968 36.2257 51.5 36.2257C46.6028 36.2257 42.2983 35.4123 39.3217 34.2002C37.8256 33.591 36.8031 32.937 36.2005 32.3568C35.6183 31.7963 35.6089 31.4943 35.6087 31.4677H32.8044H32.5278C30.0001 31.4677 30.0001 31.4681 30.0001 31.4681C30.0002 33.557 31.0514 35.2582 32.3467 36.5052Z" fill="#DDE6FF" fill-opacity="0.7"/>
<path d="M67.3913 38.7578C66.8676 39.0256 66.322 39.2732 65.7613 39.5015C61.9715 41.0447 56.9281 41.9354 51.5 41.9354C46.0719 41.9354 41.0286 41.0447 37.2387 39.5015C36.678 39.2732 36.1325 39.0256 35.6087 38.7578L35.6087 50.4999C35.6094 50.5371 35.6304 50.8401 36.2004 51.389C36.8031 51.9691 37.8256 52.6232 39.3217 53.2324C42.2983 54.4444 46.6028 55.2579 51.5 55.2579C56.3972 55.2579 60.7017 54.4444 63.6783 53.2324C65.1744 52.6232 66.1969 51.9691 66.7995 51.389C67.3826 50.8276 67.3912 50.5256 67.3912 50.4999L67.3913 38.7578Z" fill="#DDE6FF" fill-opacity="0.7"/>
<path fill-rule="evenodd" clip-rule="evenodd" d="M67.3912 50.4999C67.3912 50.5256 67.3826 50.8276 66.7995 51.389C66.1969 51.9691 65.1744 52.6232 63.6783 53.2324C60.7017 54.4444 56.3972 55.2579 51.5 55.2579C46.6028 55.2579 42.2983 54.4444 39.3217 53.2324C37.8256 52.6232 36.8031 51.9691 36.2004 51.389C35.6304 50.8401 35.6094 50.5371 35.6087 50.4999L35.6087 38.7578C34.3698 38.1243 33.253 37.3777 32.3467 36.5052C31.0514 35.2582 30.0002 33.557 30.0001 31.4681L30 50.4999V69.5323C30 71.6213 31.0513 73.3227 32.3467 74.5698C33.6361 75.8112 35.3515 76.7976 37.2387 77.5661C41.0285 79.1093 46.0719 80 51.5 80C56.9281 80 61.9714 79.1093 65.7613 77.5661C67.6484 76.7976 69.3638 75.8112 70.6533 74.5698C71.9487 73.3227 72.9999 71.6213 72.9999 69.5323V50.4999C72.9999 52.5889 71.9487 54.2903 70.6533 55.5374C69.747 56.4099 68.6302 57.1565 67.3913 57.79L67.3912 50.4999ZM35.6087 57.79C36.1324 58.0578 36.678 58.3053 37.2387 58.5337C41.0285 60.0769 46.0719 60.9676 51.5 60.9676C56.9281 60.9676 61.9714 60.0769 65.7613 58.5337C66.322 58.3053 66.8675 58.0578 67.3913 57.79L67.3912 69.5326C67.3913 69.5498 67.392 69.851 66.7995 70.4214C66.1969 71.0015 65.1744 71.6555 63.6783 72.2648C60.7017 73.4768 56.3972 74.2903 51.5 74.2903C46.6028 74.2903 42.2983 73.4768 39.3217 72.2648C37.8256 71.6555 36.8031 71.0015 36.2004 70.4214C35.608 69.851 35.6087 69.5494 35.6087 69.5323L35.6087 57.79ZM35.6087 57.79C34.3698 57.1565 33.253 56.4099 32.3467 55.5374C31.0549 54.2937 30.0058 52.581 30 50.4999H35.6087L35.6087 57.79Z" fill="#DDE6FF" fill-opacity="0.7"/>
<path d="M67.3913 57.79C66.8675 58.0578 66.322 58.3053 65.7613 58.5337C61.9714 60.0769 56.9281 60.9676 51.5 60.9676C46.0719 60.9676 41.0285 60.0769 37.2387 58.5337C36.678 58.3053 36.1324 58.0578 35.6087 57.79L35.6087 69.5323C35.6087 69.5494 35.608 69.851 36.2004 70.4214C36.8031 71.0015 37.8256 71.6555 39.3217 72.2648C42.2983 73.4768 46.6028 74.2903 51.5 74.2903C56.3972 74.2903 60.7017 73.4768 63.6783 72.2648C65.1744 71.6555 66.1969 71.0015 66.7995 70.4214C67.392 69.851 67.3913 69.5498 67.3912 69.5326L67.3913 57.79Z" fill="#DDE6FF" fill-opacity="0.7"/>
<path d="M35.6087 31.4677C35.6089 31.4943 35.6183 31.7963 36.2005 32.3568C36.8031 32.937 37.8256 33.591 39.3217 34.2002C42.2983 35.4123 46.6028 36.2257 51.5 36.2257C52.8968 36.2257 54.2454 36.1596 55.5287 36.0368C58.7447 35.7293 61.5507 35.0665 63.6783 34.2002C65.1744 33.591 66.1969 32.937 66.7996 32.3568C67.3827 31.7954 67.3912 31.4948 67.3913 31.4691C67.3913 31.4519 67.392 31.149 66.7996 30.5786C66.1969 29.9985 65.1744 29.3445 63.6783 28.7352C60.7017 27.5232 56.3972 26.7097 51.5 26.7097C46.6028 26.7097 42.2983 27.5232 39.3217 28.7352C37.8256 29.3445 36.8031 29.9985 36.2005 30.5786C35.608 31.149 35.6087 31.4505 35.6087 31.4677Z" fill="#DDE6FF" fill-opacity="0.7"/>
<path d="M30.0001 31.4681C30.0001 31.4681 30.0001 31.4677 32.5278 31.4677H32.8044H35.6087C35.6087 31.4505 35.608 31.149 36.2005 30.5786C36.8031 29.9985 37.8256 29.3445 39.3217 28.7352C42.2983 27.5232 46.6028 26.7097 51.5 26.7097C56.3972 26.7097 60.7017 27.5232 63.6783 28.7352C65.1744 29.3445 66.1969 29.9985 66.7996 30.5786C67.392 31.149 67.3913 31.4519 67.3913 31.4691L67.3913 38.7578L67.3912 50.4999H72.9999L73 31.4677C73 29.3787 71.9487 27.6773 70.6533 26.4302C69.3639 25.1888 67.6485 24.2024 65.7613 23.4339C61.9715 21.8907 56.9281 21 51.5 21C46.0719 21 41.0286 21.8907 37.2387 23.4339C35.3516 24.2024 33.6362 25.1888 32.3467 26.4302C31.0513 27.6773 30.0001 29.379 30.0001 31.4681Z" fill="#DDE6FF" fill-opacity="0.7"/>
</g>
<path fill-rule="evenodd" clip-rule="evenodd" d="M90.0828 34.3206C91.0443 31.6715 91.0047 29.5578 90.1054 28L91.8374 27C93.1471 29.2686 93.0312 32.0593 91.9628 35.0029C90.8922 37.9526 88.8203 41.1967 85.9751 44.5366C80.2787 51.2235 71.3339 58.4677 60.5002 64.7225C49.6666 70.9773 38.9205 75.1016 30.2813 76.6914C25.9663 77.4854 22.1209 77.6577 19.0311 77.1101C15.9476 76.5635 13.4728 75.2686 12.1631 73L13.8951 72C14.7945 73.5578 16.6052 74.6489 19.3801 75.1408C22.1486 75.6315 25.7343 75.4945 29.9193 74.7244C38.2803 73.1858 48.8107 69.162 59.5002 62.9904C70.1898 56.8188 78.9397 49.7111 84.4526 43.2396C87.2121 40.0003 89.1235 36.9635 90.0828 34.3206Z" fill="#2A4DBE"/>
<path fill-rule="evenodd" clip-rule="evenodd" d="M57.4625 9.1798C55.6491 7.0226 53.7988 6 52 6V4C54.6195 4 56.9784 5.49579 58.9934 7.89285C61.0126 10.2949 62.7861 13.7113 64.2559 17.8452C67.1987 26.1219 69 37.4904 69 50C69 62.5096 67.1987 73.8781 64.2559 82.1548C62.7861 86.2887 61.0126 89.7051 58.9934 92.1071C56.9784 94.5042 54.6195 96 52 96V94C53.7988 94 55.6491 92.9774 57.4625 90.8202C59.2716 88.668 60.9459 85.4943 62.3715 81.4848C65.2195 73.4747 67 62.3432 67 50C67 37.6568 65.2195 26.5253 62.3715 18.5152C60.9459 14.5057 59.2716 11.332 57.4625 9.1798Z" fill="#2A4DBE"/>
<path fill-rule="evenodd" clip-rule="evenodd" d="M19.3801 24.8592C16.6053 25.3511 14.7945 26.4422 13.8951 28L12.1631 27C13.4728 24.7314 15.9477 23.4365 19.0311 22.8899C22.1209 22.3423 25.9663 22.5146 30.2813 23.3086C38.9206 24.8984 49.6666 29.0227 60.5003 35.2775C71.3339 41.5323 80.2787 48.7765 85.9751 55.4634C88.8203 58.8033 90.8922 62.0473 91.9628 64.9971C93.0312 67.9407 93.1472 70.7314 91.8374 73L90.1054 72C91.0048 70.4422 91.0443 68.3285 90.0828 65.6794C89.1236 63.0365 87.2121 59.9997 84.4526 56.7604C78.9397 50.2889 70.1898 43.1812 59.5003 37.0096C48.8107 30.838 38.2803 26.8142 29.9194 25.2756C25.7343 24.5055 22.1486 24.3685 19.3801 24.8592Z" fill="#2A4DBE"/>
<defs>
<filter id="filter0_ddddd_3953_2408" x="0" y="18" width="103" height="117" filterUnits="userSpaceOnUse" color-interpolation-filters="sRGB">
<feFlood flood-opacity="0" result="BackgroundImageFix"/>
<feColorMatrix in="SourceAlpha" type="matrix" values="0 0 0 0 0 0 0 0 0 0 0 0 0 0 0 0 0 0 127 0" result="hardAlpha"/>
<feOffset dy="1.5"/>
<feGaussianBlur stdDeviation="1"/>
<feColorMatrix type="matrix" values="0 0 0 0 0.301961 0 0 0 0 0.415686 0 0 0 0 0.741176 0 0 0 0.2 0"/>
<feBlend mode="normal" in2="BackgroundImageFix" result="effect1_dropShadow_3953_2408"/>
<feColorMatrix in="SourceAlpha" type="matrix" values="0 0 0 0 0 0 0 0 0 0 0 0 0 0 0 0 0 0 127 0" result="hardAlpha"/>
<feOffset dy="3.5"/>
<feGaussianBlur stdDeviation="2.5"/>
<feColorMatrix type="matrix" values="0 0 0 0 0.301961 0 0 0 0 0.415686 0 0 0 0 0.741176 0 0 0 0.143771 0"/>
<feBlend mode="normal" in2="effect1_dropShadow_3953_2408" result="effect2_dropShadow_3953_2408"/>
<feColorMatrix in="SourceAlpha" type="matrix" values="0 0 0 0 0 0 0 0 0 0 0 0 0 0 0 0 0 0 127 0" result="hardAlpha"/>
<feOffset dy="7"/>
<feGaussianBlur stdDeviation="5"/>
<feColorMatrix type="matrix" values="0 0 0 0 0.301961 0 0 0 0 0.415686 0 0 0 0 0.741176 0 0 0 0.119221 0"/>
<feBlend mode="normal" in2="effect2_dropShadow_3953_2408" result="effect3_dropShadow_3953_2408"/>
<feColorMatrix in="SourceAlpha" type="matrix" values="0 0 0 0 0 0 0 0 0 0 0 0 0 0 0 0 0 0 127 0" result="hardAlpha"/>
<feOffset dy="12"/>
<feGaussianBlur stdDeviation="9"/>
<feColorMatrix type="matrix" values="0 0 0 0 0.301961 0 0 0 0 0.415686 0 0 0 0 0.741176 0 0 0 0.1 0"/>
<feBlend mode="normal" in2="effect3_dropShadow_3953_2408" result="effect4_dropShadow_3953_2408"/>
<feColorMatrix in="SourceAlpha" type="matrix" values="0 0 0 0 0 0 0 0 0 0 0 0 0 0 0 0 0 0 127 0" result="hardAlpha"/>
<feOffset dy="24"/>
<feGaussianBlur stdDeviation="16"/>
<feColorMatrix type="matrix" values="0 0 0 0 0.301961 0 0 0 0 0.415686 0 0 0 0 0.741176 0 0 0 0.0807786 0"/>
<feBlend mode="normal" in2="effect4_dropShadow_3953_2408" result="effect5_dropShadow_3953_2408"/>
<feBlend mode="normal" in="SourceGraphic" in2="effect5_dropShadow_3953_2408" result="shape"/>
</filter>
<filter id="filter1_b_3953_2408" x="22" y="13" width="59" height="75" filterUnits="userSpaceOnUse" color-interpolation-filters="sRGB">
<feFlood flood-opacity="0" result="BackgroundImageFix"/>
<feGaussianBlur in="BackgroundImageFix" stdDeviation="4"/>
<feComposite in2="SourceAlpha" operator="in" result="effect1_backgroundBlur_3953_2408"/>
<feBlend mode="normal" in="SourceGraphic" in2="effect1_backgroundBlur_3953_2408" result="shape"/>
</filter>
</defs>
</svg>
