<svg width="93" height="104" viewBox="0 0 93 104" fill="none" xmlns="http://www.w3.org/2000/svg">
<g filter="url(#filter0_d_3953_29621)">
<path d="M44.9999 50.64V83.5H46.9999V50.64L78.542 66.889L79.4579 65.111L48.1836 49L79.4579 32.889L78.542 31.111L46.9999 47.36V17H44.9999V47.36L13.4579 31.111L12.542 32.889L43.8163 49L12.542 65.111L13.4579 66.889L44.9999 50.64Z" fill="url(#paint0_linear_3953_29621)"/>
<path d="M38.2655 49.0359L37.5456 50.8908L44.029 54.1976L45.0134 60.1628H46.9867L47.9711 54.1976L54.4544 50.8908L53.7345 49.0359L46 51.166L38.2655 49.0359Z" fill="url(#paint1_linear_3953_29621)" stroke="#4469D0" stroke-width="2"/>
<g filter="url(#filter1_b_3953_29621)">
<path fill-rule="evenodd" clip-rule="evenodd" d="M46 38L57 43.7214V56.6602L46 62.3815L35 56.6602V43.7214L46 38ZM38 47.1029L44.5 50.4837V58.2198L38 54.839V47.1029ZM47.5 58.2198L54 54.839V47.1029L47.5 50.4837V58.2198ZM46 47.8824L52.2493 44.6319L46 41.3815L39.7507 44.6319L46 47.8824Z" fill="#DDE6FF" fill-opacity="0.7"/>
<path d="M47.5 58.2198L54 54.839V47.1029L47.5 50.4837V58.2198Z" fill="#DDE6FF" fill-opacity="0.7"/>
<path d="M38 47.1029L44.5 50.4837V58.2198L38 54.839V47.1029Z" fill="#DDE6FF" fill-opacity="0.7"/>
<path d="M46 47.8824L52.2493 44.6319L46 41.3815L39.7507 44.6319L46 47.8824Z" fill="#DDE6FF" fill-opacity="0.7"/>
</g>
<path opacity="0.5" fill-rule="evenodd" clip-rule="evenodd" d="M45 50.0973L38.5 45.5L46 48.3642L53.5 45.5L47 50.0973L46 58.5L45 50.0973Z" fill="url(#paint2_linear_3953_29621)"/>
<path d="M70.2655 31.0359L69.5456 32.8908L76.029 36.1976L77.0134 42.1628H78.9867L79.9711 36.1976L86.4544 32.8908L85.7345 31.0359L78 33.166L70.2655 31.0359Z" fill="url(#paint3_linear_3953_29621)" stroke="#4469D0" stroke-width="2"/>
<g filter="url(#filter2_b_3953_29621)">
<path fill-rule="evenodd" clip-rule="evenodd" d="M78 20L89 25.7214V38.6602L78 44.3815L67 38.6602V25.7214L78 20ZM70 29.1029L76.5 32.4837V40.2198L70 36.839V29.1029ZM79.5 40.2198L86 36.839V29.1029L79.5 32.4837V40.2198ZM78 29.8824L84.2493 26.6319L78 23.3815L71.7507 26.6319L78 29.8824Z" fill="#DDE6FF" fill-opacity="0.7"/>
<path d="M79.5 40.2198L86 36.839V29.1029L79.5 32.4837V40.2198Z" fill="#DDE6FF" fill-opacity="0.7"/>
<path d="M70 29.1029L76.5 32.4837V40.2198L70 36.839V29.1029Z" fill="#DDE6FF" fill-opacity="0.7"/>
<path d="M78 29.8824L84.2493 26.6319L78 23.3815L71.7507 26.6319L78 29.8824Z" fill="#DDE6FF" fill-opacity="0.7"/>
</g>
<path opacity="0.5" fill-rule="evenodd" clip-rule="evenodd" d="M77 32.0973L70.5 27.5L78 30.3642L85.5 27.5L79 32.0973L78 40.5L77 32.0973Z" fill="url(#paint4_linear_3953_29621)"/>
<path d="M7.26552 31.0359L6.54564 32.8908L13.029 36.1976L14.0134 42.1628H15.9867L16.9711 36.1976L23.4544 32.8908L22.7345 31.0359L15 33.166L7.26552 31.0359Z" fill="url(#paint5_linear_3953_29621)" stroke="#4469D0" stroke-width="2"/>
<g filter="url(#filter3_b_3953_29621)">
<path fill-rule="evenodd" clip-rule="evenodd" d="M15 20L26 25.7214V38.6602L15 44.3815L4 38.6602V25.7214L15 20ZM7 29.1029L13.5 32.4837V40.2198L7 36.839V29.1029ZM16.5 40.2198L23 36.839V29.1029L16.5 32.4837V40.2198ZM15 29.8824L21.2493 26.6319L15 23.3815L8.7507 26.6319L15 29.8824Z" fill="#DDE6FF" fill-opacity="0.7"/>
<path d="M16.5 40.2198L23 36.839V29.1029L16.5 32.4837V40.2198Z" fill="#DDE6FF" fill-opacity="0.7"/>
<path d="M7 29.1029L13.5 32.4837V40.2198L7 36.839V29.1029Z" fill="#DDE6FF" fill-opacity="0.7"/>
<path d="M15 29.8824L21.2493 26.6319L15 23.3815L8.7507 26.6319L15 29.8824Z" fill="#DDE6FF" fill-opacity="0.7"/>
</g>
<path opacity="0.5" fill-rule="evenodd" clip-rule="evenodd" d="M14 32.0973L7.5 27.5L15 30.3642L22.5 27.5L16 32.0973L15 40.5L14 32.0973Z" fill="url(#paint6_linear_3953_29621)"/>
<path d="M38.2655 15.0359L37.5456 16.8908L44.029 20.1976L45.0134 26.1628H46.9867L47.9711 20.1976L54.4544 16.8908L53.7345 15.0359L46 17.166L38.2655 15.0359Z" fill="url(#paint7_linear_3953_29621)" stroke="#4469D0" stroke-width="2"/>
<g filter="url(#filter4_b_3953_29621)">
<path fill-rule="evenodd" clip-rule="evenodd" d="M46 4L57 9.72136V22.6602L46 28.3815L35 22.6602V9.72136L46 4ZM38 13.1029L44.5 16.4837V24.2198L38 20.839V13.1029ZM47.5 24.2198L54 20.839V13.1029L47.5 16.4837V24.2198ZM46 13.8824L52.2493 10.6319L46 7.38153L39.7507 10.6319L46 13.8824Z" fill="#DDE6FF" fill-opacity="0.7"/>
<path d="M47.5 24.2198L54 20.839V13.1029L47.5 16.4837V24.2198Z" fill="#DDE6FF" fill-opacity="0.7"/>
<path d="M38 13.1029L44.5 16.4837V24.2198L38 20.839V13.1029Z" fill="#DDE6FF" fill-opacity="0.7"/>
<path d="M46 13.8824L52.2493 10.6319L46 7.38153L39.7507 10.6319L46 13.8824Z" fill="#DDE6FF" fill-opacity="0.7"/>
</g>
<path opacity="0.5" fill-rule="evenodd" clip-rule="evenodd" d="M45 16.0973L38.5 11.5L46 14.3642L53.5 11.5L47 16.0973L46 24.5L45 16.0973Z" fill="url(#paint8_linear_3953_29621)"/>
<path d="M38.2655 82.0359L37.5456 83.8908L44.029 87.1976L45.0134 93.1628H46.9867L47.9711 87.1976L54.4544 83.8908L53.7345 82.0359L46 84.166L38.2655 82.0359Z" fill="url(#paint9_linear_3953_29621)" stroke="#4469D0" stroke-width="2"/>
<g filter="url(#filter5_b_3953_29621)">
<path fill-rule="evenodd" clip-rule="evenodd" d="M46 71L57 76.7214V89.6602L46 95.3815L35 89.6602V76.7214L46 71ZM38 80.1029L44.5 83.4837V91.2198L38 87.839V80.1029ZM47.5 91.2198L54 87.839V80.1029L47.5 83.4837V91.2198ZM46 80.8824L52.2493 77.6319L46 74.3815L39.7507 77.6319L46 80.8824Z" fill="#DDE6FF" fill-opacity="0.7"/>
<path d="M47.5 91.2198L54 87.839V80.1029L47.5 83.4837V91.2198Z" fill="#DDE6FF" fill-opacity="0.7"/>
<path d="M38 80.1029L44.5 83.4837V91.2198L38 87.839V80.1029Z" fill="#DDE6FF" fill-opacity="0.7"/>
<path d="M46 80.8824L52.2493 77.6319L46 74.3815L39.7507 77.6319L46 80.8824Z" fill="#DDE6FF" fill-opacity="0.7"/>
</g>
<path opacity="0.5" fill-rule="evenodd" clip-rule="evenodd" d="M45 83.0973L38.5 78.5L46 81.3642L53.5 78.5L47 83.0973L46 91.5L45 83.0973Z" fill="url(#paint10_linear_3953_29621)"/>
<path d="M70.2655 66.0359L69.5456 67.8908L76.029 71.1976L77.0134 77.1628H78.9867L79.9711 71.1976L86.4544 67.8908L85.7345 66.0359L78 68.166L70.2655 66.0359Z" fill="url(#paint11_linear_3953_29621)" stroke="#4469D0" stroke-width="2"/>
<g filter="url(#filter6_b_3953_29621)">
<path fill-rule="evenodd" clip-rule="evenodd" d="M78 55L89 60.7214V73.6602L78 79.3815L67 73.6602V60.7214L78 55ZM70 64.1029L76.5 67.4837V75.2198L70 71.839V64.1029ZM79.5 75.2198L86 71.839V64.1029L79.5 67.4837V75.2198ZM78 64.8824L84.2493 61.6319L78 58.3815L71.7507 61.6319L78 64.8824Z" fill="#DDE6FF" fill-opacity="0.7"/>
<path d="M79.5 75.2198L86 71.839V64.1029L79.5 67.4837V75.2198Z" fill="#DDE6FF" fill-opacity="0.7"/>
<path d="M70 64.1029L76.5 67.4837V75.2198L70 71.839V64.1029Z" fill="#DDE6FF" fill-opacity="0.7"/>
<path d="M78 64.8824L84.2493 61.6319L78 58.3815L71.7507 61.6319L78 64.8824Z" fill="#DDE6FF" fill-opacity="0.7"/>
</g>
<path opacity="0.5" fill-rule="evenodd" clip-rule="evenodd" d="M77 67.0973L70.5 62.5L78 65.3642L85.5 62.5L79 67.0973L78 75.5L77 67.0973Z" fill="url(#paint12_linear_3953_29621)"/>
<path d="M7.26552 66.0359L6.54564 67.8908L13.029 71.1976L14.0134 77.1628H15.9867L16.9711 71.1976L23.4544 67.8908L22.7345 66.0359L15 68.166L7.26552 66.0359Z" fill="url(#paint13_linear_3953_29621)" stroke="#4469D0" stroke-width="2"/>
<g filter="url(#filter7_b_3953_29621)">
<path fill-rule="evenodd" clip-rule="evenodd" d="M15 55L26 60.7214V73.6602L15 79.3815L4 73.6602V60.7214L15 55ZM7 64.1029L13.5 67.4837V75.2198L7 71.839V64.1029ZM16.5 75.2198L23 71.839V64.1029L16.5 67.4837V75.2198ZM15 64.8824L21.2493 61.6319L15 58.3815L8.7507 61.6319L15 64.8824Z" fill="#DDE6FF" fill-opacity="0.7"/>
<path d="M16.5 75.2198L23 71.839V64.1029L16.5 67.4837V75.2198Z" fill="#DDE6FF" fill-opacity="0.7"/>
<path d="M7 64.1029L13.5 67.4837V75.2198L7 71.839V64.1029Z" fill="#DDE6FF" fill-opacity="0.7"/>
<path d="M15 64.8824L21.2493 61.6319L15 58.3815L8.7507 61.6319L15 64.8824Z" fill="#DDE6FF" fill-opacity="0.7"/>
</g>
<path opacity="0.5" fill-rule="evenodd" clip-rule="evenodd" d="M14 67.0973L7.5 62.5L15 65.3642L22.5 62.5L16 67.0973L15 75.5L14 67.0973Z" fill="url(#paint14_linear_3953_29621)"/>
</g>
<defs>
<filter id="filter0_d_3953_29621" x="-4" y="0" width="100" height="108" filterUnits="userSpaceOnUse" color-interpolation-filters="sRGB">
<feFlood flood-opacity="0" result="BackgroundImageFix"/>
<feColorMatrix in="SourceAlpha" type="matrix" values="0 0 0 0 0 0 0 0 0 0 0 0 0 0 0 0 0 0 127 0" result="hardAlpha"/>
<feOffset dy="4"/>
<feGaussianBlur stdDeviation="2"/>
<feComposite in2="hardAlpha" operator="out"/>
<feColorMatrix type="matrix" values="0 0 0 0 0 0 0 0 0 0 0 0 0 0 0 0 0 0 0.25 0"/>
<feBlend mode="normal" in2="BackgroundImageFix" result="effect1_dropShadow_3953_29621"/>
<feBlend mode="normal" in="SourceGraphic" in2="effect1_dropShadow_3953_29621" result="shape"/>
</filter>
<filter id="filter1_b_3953_29621" x="27" y="30" width="38" height="40.3815" filterUnits="userSpaceOnUse" color-interpolation-filters="sRGB">
<feFlood flood-opacity="0" result="BackgroundImageFix"/>
<feGaussianBlur in="BackgroundImageFix" stdDeviation="4"/>
<feComposite in2="SourceAlpha" operator="in" result="effect1_backgroundBlur_3953_29621"/>
<feBlend mode="normal" in="SourceGraphic" in2="effect1_backgroundBlur_3953_29621" result="shape"/>
</filter>
<filter id="filter2_b_3953_29621" x="59" y="12" width="38" height="40.3815" filterUnits="userSpaceOnUse" color-interpolation-filters="sRGB">
<feFlood flood-opacity="0" result="BackgroundImageFix"/>
<feGaussianBlur in="BackgroundImageFix" stdDeviation="4"/>
<feComposite in2="SourceAlpha" operator="in" result="effect1_backgroundBlur_3953_29621"/>
<feBlend mode="normal" in="SourceGraphic" in2="effect1_backgroundBlur_3953_29621" result="shape"/>
</filter>
<filter id="filter3_b_3953_29621" x="-4" y="12" width="38" height="40.3815" filterUnits="userSpaceOnUse" color-interpolation-filters="sRGB">
<feFlood flood-opacity="0" result="BackgroundImageFix"/>
<feGaussianBlur in="BackgroundImageFix" stdDeviation="4"/>
<feComposite in2="SourceAlpha" operator="in" result="effect1_backgroundBlur_3953_29621"/>
<feBlend mode="normal" in="SourceGraphic" in2="effect1_backgroundBlur_3953_29621" result="shape"/>
</filter>
<filter id="filter4_b_3953_29621" x="27" y="-4" width="38" height="40.3815" filterUnits="userSpaceOnUse" color-interpolation-filters="sRGB">
<feFlood flood-opacity="0" result="BackgroundImageFix"/>
<feGaussianBlur in="BackgroundImageFix" stdDeviation="4"/>
<feComposite in2="SourceAlpha" operator="in" result="effect1_backgroundBlur_3953_29621"/>
<feBlend mode="normal" in="SourceGraphic" in2="effect1_backgroundBlur_3953_29621" result="shape"/>
</filter>
<filter id="filter5_b_3953_29621" x="27" y="63" width="38" height="40.3815" filterUnits="userSpaceOnUse" color-interpolation-filters="sRGB">
<feFlood flood-opacity="0" result="BackgroundImageFix"/>
<feGaussianBlur in="BackgroundImageFix" stdDeviation="4"/>
<feComposite in2="SourceAlpha" operator="in" result="effect1_backgroundBlur_3953_29621"/>
<feBlend mode="normal" in="SourceGraphic" in2="effect1_backgroundBlur_3953_29621" result="shape"/>
</filter>
<filter id="filter6_b_3953_29621" x="59" y="47" width="38" height="40.3815" filterUnits="userSpaceOnUse" color-interpolation-filters="sRGB">
<feFlood flood-opacity="0" result="BackgroundImageFix"/>
<feGaussianBlur in="BackgroundImageFix" stdDeviation="4"/>
<feComposite in2="SourceAlpha" operator="in" result="effect1_backgroundBlur_3953_29621"/>
<feBlend mode="normal" in="SourceGraphic" in2="effect1_backgroundBlur_3953_29621" result="shape"/>
</filter>
<filter id="filter7_b_3953_29621" x="-4" y="47" width="38" height="40.3815" filterUnits="userSpaceOnUse" color-interpolation-filters="sRGB">
<feFlood flood-opacity="0" result="BackgroundImageFix"/>
<feGaussianBlur in="BackgroundImageFix" stdDeviation="4"/>
<feComposite in2="SourceAlpha" operator="in" result="effect1_backgroundBlur_3953_29621"/>
<feBlend mode="normal" in="SourceGraphic" in2="effect1_backgroundBlur_3953_29621" result="shape"/>
</filter>
<linearGradient id="paint0_linear_3953_29621" x1="22.6638" y1="17.5" x2="59.4672" y2="85.0014" gradientUnits="userSpaceOnUse">
<stop stop-color="#5D83E4"/>
<stop offset="1" stop-color="#1032AA"/>
</linearGradient>
<linearGradient id="paint1_linear_3953_29621" x1="39.6762" y1="49.6414" x2="40.1484" y2="54.1501" gradientUnits="userSpaceOnUse">
<stop stop-color="#5D83E4"/>
<stop offset="1" stop-color="#1032AA"/>
</linearGradient>
<linearGradient id="paint2_linear_3953_29621" x1="40.0714" y1="45.0338" x2="40.9142" y2="50.8371" gradientUnits="userSpaceOnUse">
<stop stop-color="#5D83E4"/>
<stop offset="1" stop-color="#1032AA"/>
</linearGradient>
<linearGradient id="paint3_linear_3953_29621" x1="71.6762" y1="31.6414" x2="72.1484" y2="36.1501" gradientUnits="userSpaceOnUse">
<stop stop-color="#5D83E4"/>
<stop offset="1" stop-color="#1032AA"/>
</linearGradient>
<linearGradient id="paint4_linear_3953_29621" x1="72.0714" y1="27.0338" x2="72.9142" y2="32.8371" gradientUnits="userSpaceOnUse">
<stop stop-color="#5D83E4"/>
<stop offset="1" stop-color="#1032AA"/>
</linearGradient>
<linearGradient id="paint5_linear_3953_29621" x1="8.67618" y1="31.6414" x2="9.14838" y2="36.1501" gradientUnits="userSpaceOnUse">
<stop stop-color="#5D83E4"/>
<stop offset="1" stop-color="#1032AA"/>
</linearGradient>
<linearGradient id="paint6_linear_3953_29621" x1="9.07142" y1="27.0338" x2="9.91421" y2="32.8371" gradientUnits="userSpaceOnUse">
<stop stop-color="#5D83E4"/>
<stop offset="1" stop-color="#1032AA"/>
</linearGradient>
<linearGradient id="paint7_linear_3953_29621" x1="39.6762" y1="15.6414" x2="40.1484" y2="20.1501" gradientUnits="userSpaceOnUse">
<stop stop-color="#5D83E4"/>
<stop offset="1" stop-color="#1032AA"/>
</linearGradient>
<linearGradient id="paint8_linear_3953_29621" x1="40.0714" y1="11.0338" x2="40.9142" y2="16.8371" gradientUnits="userSpaceOnUse">
<stop stop-color="#5D83E4"/>
<stop offset="1" stop-color="#1032AA"/>
</linearGradient>
<linearGradient id="paint9_linear_3953_29621" x1="39.6762" y1="82.6414" x2="40.1484" y2="87.1501" gradientUnits="userSpaceOnUse">
<stop stop-color="#5D83E4"/>
<stop offset="1" stop-color="#1032AA"/>
</linearGradient>
<linearGradient id="paint10_linear_3953_29621" x1="40.0714" y1="78.0338" x2="40.9142" y2="83.8371" gradientUnits="userSpaceOnUse">
<stop stop-color="#5D83E4"/>
<stop offset="1" stop-color="#1032AA"/>
</linearGradient>
<linearGradient id="paint11_linear_3953_29621" x1="71.6762" y1="66.6414" x2="72.1484" y2="71.1501" gradientUnits="userSpaceOnUse">
<stop stop-color="#5D83E4"/>
<stop offset="1" stop-color="#1032AA"/>
</linearGradient>
<linearGradient id="paint12_linear_3953_29621" x1="72.0714" y1="62.0338" x2="72.9142" y2="67.8371" gradientUnits="userSpaceOnUse">
<stop stop-color="#5D83E4"/>
<stop offset="1" stop-color="#1032AA"/>
</linearGradient>
<linearGradient id="paint13_linear_3953_29621" x1="8.67618" y1="66.6414" x2="9.14838" y2="71.1501" gradientUnits="userSpaceOnUse">
<stop stop-color="#5D83E4"/>
<stop offset="1" stop-color="#1032AA"/>
</linearGradient>
<linearGradient id="paint14_linear_3953_29621" x1="9.07142" y1="62.0338" x2="9.91421" y2="67.8371" gradientUnits="userSpaceOnUse">
<stop stop-color="#5D83E4"/>
<stop offset="1" stop-color="#1032AA"/>
</linearGradient>
</defs>
</svg>
