<svg width="94" height="149" viewBox="0 0 94 149" fill="none" xmlns="http://www.w3.org/2000/svg">
<g filter="url(#filter0_ddddd_3953_29574)">
<path fill-rule="evenodd" clip-rule="evenodd" d="M44.1935 38.627L32 58.7302L37 72H40.0709C40.0242 72.3266 40 72.6605 40 73V93H54V73C54 72.6605 53.9758 72.3266 53.9291 72H57L62 58.7302L49.8065 38.627L50.2696 47.6965C53.0578 48.9466 55 51.7465 55 55C55 57.9626 53.3896 60.549 50.9965 61.9317L51 62H50.876C49.7277 62.6372 48.4062 63 47 63C45.5938 63 44.2723 62.6372 43.124 62H43L43.0035 61.9317C40.6104 60.549 39 57.9626 39 55C39 51.7465 40.9422 48.9466 43.7304 47.6965L44.1935 38.627Z" fill="white"/>
</g>
<path fill-rule="evenodd" clip-rule="evenodd" d="M44 66C39.5817 66 36 69.5817 36 74V79H38V93H56V79H58V74C58 69.5817 54.4183 66 50 66H48H46H44Z" fill="url(#paint0_linear_3953_29574)"/>
<g filter="url(#filter1_b_3953_29574)">
<path fill-rule="evenodd" clip-rule="evenodd" d="M29 57.9365L45.6795 30.1962L44.6242 50.5994C43.0615 51.4449 42 53.0985 42 55C42 57.7614 44.2386 60 47 60C49.7614 60 52 57.7614 52 55C52 53.0985 50.9385 51.4449 49.3758 50.5994L48.3205 30.1962L65 57.9365L59 74H35L29 57.9365Z" fill="#DDE6FF" fill-opacity="0.7"/>
</g>
<g opacity="0.4" filter="url(#filter2_b_3953_29574)">
<path fill-rule="evenodd" clip-rule="evenodd" d="M11.5 14L7 18.5L11.5 23L15 19.5H44V17.5H15L11.5 14ZM11.5 20.1716L9.82843 18.5L11.5 16.8284L13.1716 18.5L11.5 20.1716Z" fill="#4266D0"/>
<path fill-rule="evenodd" clip-rule="evenodd" d="M82.5 14L79 17.5H50V19.5H79L82.5 23L87 18.5L82.5 14ZM82.5 20.1716L80.8284 18.5L82.5 16.8284L84.1716 18.5L82.5 20.1716Z" fill="#4266D0"/>
</g>
<path fill-rule="evenodd" clip-rule="evenodd" d="M47 16.5C45.8954 16.5 45 17.3954 45 18.5C45 19.6046 45.8954 20.5 47 20.5C48.1046 20.5 49 19.6046 49 18.5C49 17.3954 48.1046 16.5 47 16.5ZM43 18.5C43 16.2909 44.7909 14.5 47 14.5C49.2091 14.5 51 16.2909 51 18.5C51 20.7091 49.2091 22.5 47 22.5C44.7909 22.5 43 20.7091 43 18.5Z" fill="#4C4F61"/>
<path fill-rule="evenodd" clip-rule="evenodd" d="M17 42C15.8954 42 15 42.8954 15 44C15 45.1046 15.8954 46 17 46C18.1046 46 19 45.1046 19 44C19 42.8954 18.1046 42 17 42ZM13 44C13 41.7909 14.7909 40 17 40C19.2091 40 21 41.7909 21 44C21 46.2091 19.2091 48 17 48C14.7909 48 13 46.2091 13 44Z" fill="#4C4F61"/>
<path fill-rule="evenodd" clip-rule="evenodd" d="M77 42C75.8954 42 75 42.8954 75 44C75 45.1046 75.8954 46 77 46C78.1046 46 79 45.1046 79 44C79 42.8954 78.1046 42 77 42ZM73 44C73 41.7909 74.7909 40 77 40C79.2091 40 81 41.7909 81 44C81 46.2091 79.2091 48 77 48C74.7909 48 73 46.2091 73 44Z" fill="#4C4F61"/>
<path fill-rule="evenodd" clip-rule="evenodd" d="M43.5819 19.4967C26.0658 20.9315 20.5895 34.9125 18.7226 41.7629L16.793 41.2371C18.7067 34.2149 24.5541 19.0486 43.4186 17.5034L43.5819 19.4967ZM75.1415 41.2758C73.1327 34.2747 67.4087 20.9669 50.414 19.4963L50.5864 17.5037C68.8793 19.0866 74.9939 33.5097 77.0639 40.7242L75.1415 41.2758Z" fill="#4C4F61"/>
<defs>
<filter id="filter0_ddddd_3953_29574" x="0" y="30.627" width="94" height="118.373" filterUnits="userSpaceOnUse" color-interpolation-filters="sRGB">
<feFlood flood-opacity="0" result="BackgroundImageFix"/>
<feColorMatrix in="SourceAlpha" type="matrix" values="0 0 0 0 0 0 0 0 0 0 0 0 0 0 0 0 0 0 127 0" result="hardAlpha"/>
<feOffset dy="1.5"/>
<feGaussianBlur stdDeviation="1"/>
<feColorMatrix type="matrix" values="0 0 0 0 0.301961 0 0 0 0 0.415686 0 0 0 0 0.741176 0 0 0 0.2 0"/>
<feBlend mode="normal" in2="BackgroundImageFix" result="effect1_dropShadow_3953_29574"/>
<feColorMatrix in="SourceAlpha" type="matrix" values="0 0 0 0 0 0 0 0 0 0 0 0 0 0 0 0 0 0 127 0" result="hardAlpha"/>
<feOffset dy="3.5"/>
<feGaussianBlur stdDeviation="2.5"/>
<feColorMatrix type="matrix" values="0 0 0 0 0.301961 0 0 0 0 0.415686 0 0 0 0 0.741176 0 0 0 0.143771 0"/>
<feBlend mode="normal" in2="effect1_dropShadow_3953_29574" result="effect2_dropShadow_3953_29574"/>
<feColorMatrix in="SourceAlpha" type="matrix" values="0 0 0 0 0 0 0 0 0 0 0 0 0 0 0 0 0 0 127 0" result="hardAlpha"/>
<feOffset dy="7"/>
<feGaussianBlur stdDeviation="5"/>
<feColorMatrix type="matrix" values="0 0 0 0 0.301961 0 0 0 0 0.415686 0 0 0 0 0.741176 0 0 0 0.119221 0"/>
<feBlend mode="normal" in2="effect2_dropShadow_3953_29574" result="effect3_dropShadow_3953_29574"/>
<feColorMatrix in="SourceAlpha" type="matrix" values="0 0 0 0 0 0 0 0 0 0 0 0 0 0 0 0 0 0 127 0" result="hardAlpha"/>
<feOffset dy="12"/>
<feGaussianBlur stdDeviation="9"/>
<feColorMatrix type="matrix" values="0 0 0 0 0.301961 0 0 0 0 0.415686 0 0 0 0 0.741176 0 0 0 0.1 0"/>
<feBlend mode="normal" in2="effect3_dropShadow_3953_29574" result="effect4_dropShadow_3953_29574"/>
<feColorMatrix in="SourceAlpha" type="matrix" values="0 0 0 0 0 0 0 0 0 0 0 0 0 0 0 0 0 0 127 0" result="hardAlpha"/>
<feOffset dy="24"/>
<feGaussianBlur stdDeviation="16"/>
<feColorMatrix type="matrix" values="0 0 0 0 0.301961 0 0 0 0 0.415686 0 0 0 0 0.741176 0 0 0 0.0807786 0"/>
<feBlend mode="normal" in2="effect4_dropShadow_3953_29574" result="effect5_dropShadow_3953_29574"/>
<feBlend mode="normal" in="SourceGraphic" in2="effect5_dropShadow_3953_29574" result="shape"/>
</filter>
<filter id="filter1_b_3953_29574" x="21" y="22.1962" width="52" height="59.8038" filterUnits="userSpaceOnUse" color-interpolation-filters="sRGB">
<feFlood flood-opacity="0" result="BackgroundImageFix"/>
<feGaussianBlur in="BackgroundImageFix" stdDeviation="4"/>
<feComposite in2="SourceAlpha" operator="in" result="effect1_backgroundBlur_3953_29574"/>
<feBlend mode="normal" in="SourceGraphic" in2="effect1_backgroundBlur_3953_29574" result="shape"/>
</filter>
<filter id="filter2_b_3953_29574" x="-1" y="6" width="96" height="25" filterUnits="userSpaceOnUse" color-interpolation-filters="sRGB">
<feFlood flood-opacity="0" result="BackgroundImageFix"/>
<feGaussianBlur in="BackgroundImageFix" stdDeviation="4"/>
<feComposite in2="SourceAlpha" operator="in" result="effect1_backgroundBlur_3953_29574"/>
<feBlend mode="normal" in="SourceGraphic" in2="effect1_backgroundBlur_3953_29574" result="shape"/>
</filter>
<linearGradient id="paint0_linear_3953_29574" x1="45.5" y1="69" x2="47.3566" y2="94.7268" gradientUnits="userSpaceOnUse">
<stop stop-color="#5D83E4"/>
<stop offset="1" stop-color="#1032AA"/>
</linearGradient>
</defs>
</svg>
