<svg width="124" height="35" viewBox="0 0 124 35" fill="none" xmlns="http://www.w3.org/2000/svg">
<path opacity="0.8" fill-rule="evenodd" clip-rule="evenodd" d="M123.12 16.5228C126.523 8.39041 119.574 0 110.594 0C103.314 0 97.4118 5.15179 97.4118 11.5068C97.4118 17.8479 103.288 22.991 110.546 23.0136L105.983 29.2466H82.497L91.8121 16.5228C95.2147 8.39041 88.2658 0 79.2862 0C72.0058 0 66.1039 5.15179 66.1039 11.5068C66.1039 17.8479 71.9798 22.991 79.2381 23.0136L74.675 29.2466H56.0777C58.8754 26.2008 60.6113 21.9558 60.6113 17.2603C60.6113 7.99248 53.8487 0.479452 45.5066 0.479452C37.1645 0.479452 30.4019 7.99248 30.4019 17.2603C30.4019 21.9558 32.1378 26.2008 34.9355 29.2466H9.83312L19.9901 19.7479C22.7123 17.5 23.8124 14.6867 23.8124 11.5068C23.8124 5.68132 18.4024 0.958904 11.7287 0.958904C6.06172 0.958904 1.30557 4.36446 0 8.95882L6.24034 11.8051C6.34922 9.24116 8.76511 7.19178 11.7287 7.19178C14.7619 7.19178 17.2213 9.33831 17.2213 11.9863C17.2213 13.5513 16.3958 14.6233 15.131 15.8603L0.816925 29.2466H0.741824V35H109.496V34.7393L109.7 34.8534L123.12 16.5228ZM117.185 11.5068C117.185 14.6844 114.234 17.2603 110.594 17.2603C106.954 17.2603 104.003 14.6844 104.003 11.5068C104.003 8.32932 106.954 5.75342 110.594 5.75342C114.234 5.75342 117.185 8.32932 117.185 11.5068ZM79.2862 17.2603C82.9263 17.2603 85.8773 14.6844 85.8773 11.5068C85.8773 8.32932 82.9263 5.75342 79.2862 5.75342C75.646 5.75342 72.695 8.32932 72.695 11.5068C72.695 14.6844 75.646 17.2603 79.2862 17.2603ZM45.5066 27.4786C49.5478 27.4786 54.0202 23.5985 54.0202 17.2603C54.0202 10.922 49.5478 7.04195 45.5066 7.04195C41.4654 7.04195 36.9931 10.922 36.9931 17.2603C36.9931 23.5985 41.4654 27.4786 45.5066 27.4786Z" fill="#47464F"/>
</svg>
