<svg width="191" height="31" viewBox="0 0 191 31" fill="none" xmlns="http://www.w3.org/2000/svg">
<path d="M31.2705 0.0468098C31.4587 0.0371057 31.621 0.0208526 31.6312 0.0107183C31.6562 -0.0141872 33.5958 0.00818474 34.0192 0.0382769C34.5352 0.0749182 34.9419 0.109958 35.1421 0.134959C35.2417 0.147412 35.4156 0.168684 35.5285 0.182237C35.6414 0.195789 35.7881 0.218185 35.8545 0.232C35.9209 0.245815 36.0513 0.26747 36.1443 0.280114C36.2372 0.292758 36.3622 0.31305 36.422 0.32524C36.4817 0.33743 36.5958 0.360137 36.6755 0.37572C36.7552 0.391304 36.8639 0.412816 36.917 0.423524C36.9701 0.434232 37.0734 0.454285 37.1464 0.4681C37.2896 0.495157 38.1363 0.706065 38.3538 0.768855C38.5679 0.830665 39.1082 0.996542 39.1869 1.02463C39.2268 1.03885 39.4061 1.10185 39.5854 1.16464C40.064 1.33226 40.1884 1.37727 40.3158 1.4288C40.3789 1.45433 40.4876 1.49778 40.5573 1.52541C40.9018 1.66184 42.1837 2.27146 42.459 2.4298C43.1307 2.81613 43.6263 3.12123 44.0032 3.38049C44.1894 3.50856 44.8786 4.01695 44.9221 4.05822C44.942 4.07715 45.0181 4.1408 45.0911 4.19965C45.1641 4.25852 45.2402 4.3232 45.2601 4.34339C45.2801 4.36359 45.3561 4.42832 45.4292 4.48723C45.5022 4.54615 45.6217 4.65352 45.6948 4.72582C45.7678 4.79812 45.8872 4.90568 45.96 4.96484C46.1295 5.10263 46.4008 5.37112 46.54 5.53893C46.5997 5.61099 46.6975 5.71834 46.7573 5.77749C46.8171 5.83665 46.9147 5.94421 46.9743 6.01651C47.0339 6.08881 47.0886 6.15335 47.0959 6.15992C47.1032 6.16649 47.1748 6.25254 47.2549 6.35113C47.6867 6.88247 48.1597 7.55676 48.4873 8.1079C48.6897 8.44838 49.0514 9.11517 49.0514 9.14782C49.0514 9.16049 49.0937 9.25973 49.1453 9.36836C49.2442 9.57623 49.35 9.81625 49.4351 10.026C49.4631 10.095 49.5074 10.2026 49.5336 10.265C49.5794 10.3745 49.7061 10.7554 49.8376 11.1793C49.9132 11.4233 50.0817 12.0715 50.1171 12.2548C50.1311 12.3271 50.1524 12.4347 50.1645 12.4939C50.1766 12.553 50.1982 12.6713 50.2125 12.7568C50.2268 12.8422 50.2486 12.9713 50.2608 13.0436C50.3729 13.7017 50.4324 14.5127 50.4326 15.386C50.4328 16.1826 50.4052 16.6026 50.3086 17.2742C50.2964 17.3596 50.2756 17.5102 50.2625 17.6088C50.2495 17.7074 50.2215 17.8504 50.2005 17.9267C50.1794 18.0029 50.1622 18.0895 50.1622 18.1192C50.1622 18.2985 49.692 19.9027 49.5269 20.2869C49.5074 20.3323 49.4673 20.4286 49.4378 20.5009C49.227 21.0177 48.7012 22.077 48.4533 22.4843C48.2056 22.8912 47.785 23.5119 47.5216 23.8591C47.3236 24.1201 47.0322 24.4868 46.9993 24.5164C46.992 24.523 46.9374 24.5875 46.878 24.6598C46.8185 24.7321 46.7425 24.8181 46.709 24.851C46.6755 24.8839 46.5994 24.9697 46.5397 25.0417C46.3999 25.2104 45.697 25.9063 45.5252 26.0461C45.4524 26.1053 45.344 26.2021 45.2843 26.2612C45.2245 26.3204 45.1158 26.417 45.0428 26.4759C44.9698 26.5348 44.8937 26.5998 44.8738 26.6202C44.7014 26.7971 43.524 27.6522 43.0609 27.9368C42.5995 28.2205 42.2893 28.4047 42.0726 28.5239C41.7992 28.6743 40.9364 29.0995 40.5634 29.2677C40.3157 29.3794 40.2097 29.4239 39.9174 29.5385C39.7139 29.6184 39.5511 29.6836 39.4654 29.7198C39.4193 29.7392 39.1873 29.8188 38.9499 29.8967C38.7125 29.9747 38.4967 30.0499 38.4703 30.0638C38.444 30.0778 38.3173 30.1155 38.1889 30.1477C38.0605 30.1799 37.8956 30.2266 37.8226 30.2514C37.6422 30.3125 36.7385 30.5278 36.3133 30.611C36.2336 30.6265 36.1467 30.6443 36.1201 30.6504C36.0936 30.6566 36.0012 30.6726 35.9149 30.6862C35.8285 30.6997 35.6981 30.7206 35.6251 30.7327C35.4538 30.7611 35.2071 30.7958 34.9489 30.8279C34.836 30.8419 34.6622 30.8636 34.5626 30.8761C33.1836 31.0498 31.2338 31.0287 30.0107 30.8267C29.931 30.8136 29.7897 30.7927 29.6968 30.7804C29.6038 30.768 29.506 30.7527 29.4794 30.7464C29.4529 30.7401 29.3659 30.7222 29.2862 30.7068C29.2065 30.6913 29.0544 30.6591 28.9482 30.6352C28.8419 30.6113 28.6898 30.5792 28.6101 30.5637C28.5304 30.5483 28.3943 30.515 28.3076 30.4898C28.2208 30.4646 28.1308 30.444 28.1074 30.444C28.0839 30.444 27.9973 30.4236 27.9148 30.3987C27.8324 30.3738 27.6834 30.3303 27.5838 30.3021C27.2722 30.2136 26.9228 30.1092 26.8473 30.082C26.8074 30.0677 26.5955 29.9937 26.3764 29.9177C25.959 29.7729 25.6816 29.672 25.4588 29.5837C25.3857 29.5548 25.2662 29.5101 25.1931 29.4844C25.1201 29.4587 24.9897 29.4071 24.9034 29.3698C24.817 29.3325 24.6866 29.2781 24.6136 29.249C24.0305 29.0168 22.0363 28.0589 21.3295 27.6716C21.1635 27.5806 20.9407 27.4614 20.8344 27.4067C20.7282 27.3521 20.5815 27.2724 20.5084 27.2298C20.3797 27.1546 20.1811 27.0416 19.8564 26.8587C19.2816 26.5349 18.2307 25.911 17.5684 25.5004L17.17 25.2533C17.0604 25.1853 16.8458 25.0547 16.6931 24.963C16.5403 24.8713 16.3556 24.7564 16.2825 24.7077C16.2095 24.659 16.0791 24.5762 15.9928 24.5238C15.9064 24.4714 15.7461 24.373 15.6366 24.3051L15.2442 24.0623L14.8578 23.8232L14.4714 23.5842L14.079 23.3413C13.7425 23.1328 13.2647 22.8431 12.9984 22.6861C12.859 22.6039 12.6797 22.4962 12.6 22.4468C12.5203 22.3974 12.3817 22.3158 12.2921 22.2655C12.1088 22.1627 11.8611 22.0228 11.6099 21.8804C11.1497 21.6196 10.9311 21.5049 10.3301 21.2092C9.70134 20.8999 9.38491 20.7532 9.11662 20.6468C9.04688 20.6192 8.93822 20.5757 8.87514 20.5501C8.81207 20.5246 8.69797 20.4816 8.62159 20.4545C8.54521 20.4275 8.4257 20.3842 8.35596 20.3583C8.2286 20.3112 8.16343 20.2924 7.67378 20.1625C6.6139 19.8811 5.73853 19.8783 4.91931 20.1536C4.76972 20.2039 4.36724 20.4091 4.20383 20.5184C3.63095 20.9016 3.10341 21.543 2.6904 22.3586C2.53699 22.6616 2.45407 22.8797 2.31082 23.3572C2.21339 23.6819 2.17277 24.0287 2.17224 24.5403C2.17161 25.1729 2.24463 25.5634 2.47969 26.1842C2.53197 26.3223 2.74503 26.742 2.85249 26.9185C2.93413 27.0527 3.24818 27.4803 3.31946 27.5544C3.33709 27.5728 3.40036 27.6468 3.46005 27.719C3.59603 27.8833 3.67893 27.9655 3.84603 28.1016C3.91865 28.1608 4.01302 28.2415 4.05576 28.2809C4.39975 28.5986 5.27598 29.1171 5.74759 29.2821C5.83744 29.3136 5.97074 29.3618 6.04379 29.3891C6.21232 29.4524 6.61578 29.5565 6.80445 29.5854L7.13045 29.6356C7.36345 29.6717 8.34372 29.672 8.57933 29.636C8.93764 29.5813 9.03628 29.5578 9.40036 29.44C9.63764 29.3633 9.73515 29.3227 10.0106 29.1859C10.5503 28.918 11.1043 28.4944 11.4287 28.1016C11.4884 28.0293 11.5507 27.9561 11.5672 27.939C11.6295 27.874 11.8126 27.6276 11.9537 27.4188C12.094 27.2113 12.4731 26.4921 12.5545 26.2792C12.5994 26.1615 12.8582 25.3901 12.9037 25.2382C12.9981 24.923 13.054 25.215 13.0538 26.0222C13.0535 26.9161 12.976 27.333 12.6504 28.1924C12.5553 28.4435 12.2211 28.9992 12.0653 29.1653C12.0406 29.1916 11.9715 29.2721 11.9118 29.3443C11.775 29.5095 11.6921 29.5915 11.5251 29.7269C11.4522 29.7861 11.3708 29.8544 11.3443 29.8787C11.2793 29.9382 11.0698 30.0787 10.8492 30.2107C10.6824 30.3106 10.5423 30.3799 10.1648 30.5496C9.99302 30.6268 9.4249 30.8141 9.29169 30.8375C9.23857 30.8469 9.1462 30.8644 9.08644 30.8765C8.63832 30.9674 8.26905 31 7.68585 31C7.22764 31 6.94584 30.9818 6.51468 30.9242C6.42171 30.9118 6.32391 30.8964 6.29734 30.89C6.27078 30.8836 6.18385 30.8656 6.10416 30.8502C5.67447 30.7668 4.80548 30.5033 4.48228 30.3584C4.21651 30.2393 3.71346 29.9896 3.5324 29.8869C3.19995 29.6985 2.55578 29.2497 2.44574 29.1299C2.4391 29.1227 2.37411 29.0686 2.30133 29.0096C2.13196 28.8723 1.81289 28.5566 1.6731 28.388C1.6134 28.3159 1.55014 28.242 1.53251 28.2237C1.40271 28.0887 1.02444 27.5587 0.891814 27.326C0.627225 26.8616 0.604599 26.814 0.436842 26.3688C0.397216 26.2636 0.348243 26.1345 0.328031 26.0819C0.268023 25.9259 0.101233 25.2586 0.0770853 25.0781C0.0111613 24.5854 -0.000261161 24.4065 4.46666e-06 23.871C0.000342539 23.2349 0.0403563 22.7437 0.124681 22.3413C0.137069 22.2822 0.158657 22.1746 0.172639 22.1023C0.245928 21.7235 0.443652 21.0753 0.610104 20.6682C0.639661 20.5959 0.678998 20.4963 0.697544 20.4468C0.756537 20.2892 1.0437 19.7379 1.15908 19.5606C1.22032 19.4665 1.3267 19.3034 1.39545 19.1983C1.51464 19.0159 1.88019 18.5451 1.96145 18.4693C1.98258 18.4496 2.04858 18.3744 2.1081 18.3023C2.24502 18.1364 2.37445 18.0082 2.54267 17.872C2.61552 17.8129 2.70231 17.737 2.73551 17.7031C2.81769 17.6194 3.26073 17.2723 3.43052 17.1585C3.85287 16.8756 4.49899 16.5309 5.08994 16.2733C5.36999 16.1512 6.1845 15.8991 6.49053 15.8399C6.57022 15.8244 6.72235 15.7919 6.8286 15.7676C6.93485 15.7433 7.08155 15.7167 7.1546 15.7085C7.22765 15.7004 7.35804 15.6832 7.44437 15.6704C8.07676 15.5766 9.27508 15.5766 9.90747 15.6704C9.9938 15.6832 10.1242 15.7004 10.1972 15.7085C10.2703 15.7167 10.417 15.7433 10.5232 15.7676C10.6295 15.7919 10.7816 15.8244 10.8613 15.8399C10.941 15.8553 11.0823 15.889 11.1752 15.9148C11.7356 16.0703 11.6679 16.0491 12.0204 16.1796C12.1267 16.2189 12.2868 16.2768 12.3763 16.3083C12.5429 16.3669 14.1837 17.1694 14.4231 17.3094C14.4962 17.3521 14.632 17.4299 14.725 17.4823C14.9971 17.6358 15.9164 18.1776 16.1135 18.3006C16.2131 18.3627 16.387 18.4708 16.4999 18.5408C16.6128 18.6108 16.8518 18.7614 17.0311 18.8756C17.2104 18.9898 17.4495 19.1404 17.5624 19.2102C17.6753 19.2801 17.9143 19.4306 18.0936 19.5447C18.3982 19.7385 18.5616 19.8418 19.2226 20.2581C19.7059 20.5625 19.8677 20.6622 20.2066 20.8646C20.3925 20.9757 20.599 21.0992 20.6654 21.1391C22.063 21.9787 23.5485 22.8211 25.0966 23.3656C25.595 23.5411 26.0864 23.7421 26.5971 23.8818C27.9588 24.2538 29.3281 24.4982 30.7472 24.4982C31.6723 24.4982 32.0828 24.468 32.9447 24.3367C33.2231 24.2943 33.748 24.1747 34.4056 24.0038C34.6393 23.943 35.51 23.6599 35.6642 23.5945C35.9692 23.4651 36.0858 23.4166 36.2046 23.3694C36.3483 23.3124 36.929 23.0454 37.2792 22.8753C37.7126 22.6648 38.0887 22.4528 38.7522 22.045C38.9578 21.9187 39.7999 21.3098 39.9009 21.2145C39.9199 21.1966 39.9953 21.1335 40.0683 21.0745C40.1414 21.0153 40.25 20.9186 40.3098 20.8594C40.3696 20.8003 40.4782 20.7035 40.5512 20.6443C40.7166 20.5103 40.7539 20.4734 40.8893 20.3096C40.9491 20.2373 41.0475 20.1298 41.1079 20.0707C41.2304 19.9509 41.7902 19.2638 41.8573 19.151C41.881 19.1113 41.9341 19.0304 41.9754 18.9712C42.1654 18.6987 42.5314 18.0871 42.5314 18.042C42.5314 18.0268 42.5912 17.8964 42.6642 17.7523C42.7372 17.6082 42.8121 17.4498 42.8307 17.4002C42.8492 17.3506 42.8885 17.2509 42.9179 17.1786C43.0861 16.7651 43.2384 16.2549 43.328 15.8042C43.3437 15.7254 43.3616 15.6393 43.3678 15.613C43.3811 15.5568 43.4201 15.3184 43.4518 15.0991C43.5699 14.2844 43.5504 13.1762 43.4027 12.3026C43.3904 12.2303 43.3694 12.1013 43.356 12.0158C43.3178 11.7735 43.1245 11.0453 43.0186 10.7455C42.7925 10.1047 42.6938 9.86288 42.4545 9.36274C42.3333 9.10943 42.2573 8.97369 41.9929 8.53813C41.7662 8.16455 41.7068 8.0721 41.5785 7.89279C41.4277 7.68207 41.1205 7.27704 41.0781 7.23296C41.0605 7.21463 40.9973 7.14048 40.9378 7.06818C40.8782 6.99588 40.8021 6.90983 40.7686 6.87697C40.7351 6.8441 40.659 6.7583 40.5993 6.68628C40.4615 6.51983 40.047 6.10908 39.8753 5.96871C39.8029 5.90955 39.6934 5.81275 39.632 5.75359C39.4331 5.56216 38.686 5.00444 38.3537 4.79925C37.3914 4.2052 36.4154 3.73474 35.7458 3.54226C35.6861 3.52507 35.5391 3.47892 35.4192 3.4397C35.2994 3.40047 35.1255 3.35009 35.0329 3.32774C34.9402 3.30537 34.8155 3.2711 34.7558 3.25157C34.696 3.23202 34.5873 3.20517 34.5143 3.19191C34.4412 3.17864 34.338 3.15902 34.2849 3.14831C33.8563 3.06191 33.7224 3.03911 33.4397 3.0045C32.8792 2.93585 32.6736 2.92643 31.7373 2.92643C31.1527 2.92643 30.6294 2.93776 30.4816 2.95363C30.1191 2.99252 29.8617 3.02479 29.7088 3.05048C29.6358 3.06274 29.5054 3.08438 29.419 3.0985C29.3327 3.11265 29.2132 3.13402 29.1534 3.14599C28.9554 3.18569 28.7563 3.22422 28.6584 3.24172C28.6053 3.25123 28.502 3.2759 28.429 3.29657C28.3559 3.31723 28.2255 3.35193 28.1392 3.37368C27.6816 3.48898 27.5067 3.53973 27.0738 3.68273C26.8133 3.7688 26.5633 3.85468 26.5184 3.87354C26.4287 3.9112 26.2376 3.98817 26.0504 4.06198C25.1735 4.40774 24.0649 4.96254 23.1647 5.50609C22.6555 5.81361 22.4787 5.92463 22.3927 5.99101C22.3458 6.02722 22.206 6.12395 22.082 6.20598C21.893 6.33103 21.3211 6.75806 21.2812 6.804C21.2745 6.81162 21.2093 6.86602 21.1363 6.92487C21.0632 6.98371 20.9763 7.05896 20.9431 7.09208C20.9099 7.12521 20.8232 7.2006 20.7504 7.25964C20.5808 7.39721 20.214 7.76021 20.0738 7.92914C20.014 8.00118 19.9162 8.1085 19.8564 8.16766C19.7967 8.22682 19.6989 8.33428 19.6391 8.40644C19.5793 8.47862 19.5045 8.56706 19.4727 8.60298C19.3439 8.74871 18.9977 9.20043 18.8112 9.46616C18.4132 10.0332 18.0515 10.6334 17.7138 11.2868C17.6179 11.4723 17.2766 12.1966 17.2294 12.3146C17.1219 12.5837 17.0136 12.8491 16.9321 13.0436C16.4885 14.1018 16.2158 15.2828 15.9928 16.4018C15.947 16.6315 15.8673 16.9479 15.8437 16.9933C15.7905 17.096 15.7182 17.0155 15.6777 16.8081C15.6674 16.7555 15.6468 16.6533 15.6321 16.581C15.6173 16.5087 15.5945 16.3743 15.5815 16.2823C15.5685 16.1902 15.547 16.0504 15.5338 15.9715C15.3802 15.0541 15.3668 14.3522 15.485 13.4141C15.5205 13.1326 15.5435 13.0002 15.6305 12.5775C15.6414 12.5249 15.6617 12.4227 15.6757 12.3504C15.7521 11.9575 16.0902 10.8918 16.3053 10.3666L16.403 10.1276C16.513 9.85796 16.6576 9.55073 16.926 9.01617C17.3319 8.20808 17.377 8.12956 17.8378 7.42769C18.2147 6.85357 18.8735 5.98047 19.0829 5.77749C19.1168 5.74463 19.1933 5.65885 19.253 5.58688C19.3937 5.41706 20.3858 4.43513 20.5573 4.29583C20.63 4.23679 20.7167 4.16076 20.7499 4.12687C20.9453 3.92746 22.0667 3.09482 22.4886 2.83594C22.7259 2.69036 23.346 2.32203 23.5752 2.19053C23.8926 2.00847 24.8648 1.55943 25.4346 1.33171C25.5077 1.30253 25.6048 1.26293 25.6504 1.24373C25.7685 1.19402 27.0073 0.786709 27.2095 0.73109C27.3935 0.68049 28.1146 0.501634 28.4048 0.434638C28.6075 0.387839 28.7354 0.362718 28.9482 0.327917C29.0279 0.314891 29.1474 0.293212 29.2138 0.279755C29.2802 0.266299 29.416 0.243998 29.5156 0.230183C29.6153 0.216368 29.7674 0.195072 29.8537 0.182858C30.2644 0.124753 30.8502 0.0685125 31.2705 0.0468098Z" fill="#47464F"/>
<path fill-rule="evenodd" clip-rule="evenodd" d="M70.2569 9.64927C70.2018 9.67358 70.0412 9.69506 69.9001 9.697C69.6435 9.70047 68.881 9.87289 68.5037 10.0128C67.9396 10.2219 67.7681 10.3024 67.3767 10.542C66.4909 11.0843 66.0272 11.5089 65.5652 12.2009C65.0399 12.9879 64.7104 13.7915 64.5664 14.6375C64.4312 15.4312 64.4109 16.4446 64.391 23.3539C64.3723 29.8951 64.3778 30.5892 64.4495 30.6602C64.5141 30.7242 64.6552 30.7385 65.2138 30.7379C65.5907 30.7375 65.9328 30.716 65.9742 30.6901C66.0401 30.6488 66.0533 29.7724 66.0822 23.5086C66.1121 17.0495 66.1421 15.5151 66.2483 15.0345C66.5072 13.8626 66.8557 13.1407 67.4441 12.5579C67.9684 12.0385 68.9387 11.4753 69.4742 11.3795C69.6292 11.3518 69.8687 11.3039 70.0064 11.2731C70.3266 11.2015 71.9093 11.2024 72.3356 11.2745C73.014 11.389 73.7747 11.7152 74.304 12.1185C74.6824 12.4067 74.7928 12.5274 75.0877 12.9753C75.2855 13.2757 75.3585 13.4505 75.4664 13.8826C75.5832 14.3505 75.5969 14.4878 75.5758 14.9742C75.5482 15.6084 75.5008 15.8786 75.3284 16.3836C75.1559 16.8888 74.9243 17.2437 74.4717 17.6965C73.9683 18.2001 73.4701 18.4637 72.561 18.7075C71.9496 18.8716 71.6091 18.8941 69.2951 18.9239C67.7729 18.9435 66.9123 18.9726 66.879 19.0057C66.8064 19.0776 66.7549 20.3233 66.8205 20.418C66.8649 20.4821 67.2678 20.4966 69.7165 20.5226C72.8267 20.5555 73.0269 20.5729 73.9773 20.8917C74.735 21.1459 75.691 22.0121 76.1004 22.8155C76.416 23.4348 76.5435 23.9671 76.5782 24.8093C76.6022 25.3921 76.5905 25.4921 76.4077 26.2722C76.2955 26.7508 75.9316 27.4307 75.5822 27.8146C75.3731 28.0442 74.8219 28.4405 74.4644 28.6181C74.1595 28.7695 73.8916 28.8472 72.7982 29.1013C72.6691 29.1312 71.4747 29.1509 69.7803 29.1509C66.9982 29.1509 66.9751 29.1517 66.8708 29.2551C66.7732 29.3517 66.7668 29.4032 66.7831 29.967C66.7953 30.3914 66.8216 30.5997 66.8703 30.6577C66.9344 30.7342 67.1867 30.7394 70.026 30.7221C71.8716 30.7109 73.2227 30.6826 73.3875 30.6517C73.539 30.6232 73.7531 30.5838 73.8633 30.5641C74.168 30.5096 75.0648 30.2075 75.357 30.0609C76.748 29.3633 77.9022 27.8881 78.204 26.4219C78.2489 26.2038 78.3533 25.2798 78.3497 25.1318C78.3047 23.2566 77.806 21.9043 76.7686 20.8448C76.2492 20.3143 75.9814 20.1161 75.3816 19.8179C75.1113 19.6835 74.8902 19.5525 74.8902 19.5267C74.8902 19.5009 75.0744 19.3409 75.2995 19.1711C75.8128 18.784 76.0428 18.5502 76.3425 18.1108C76.7631 17.4941 77.0826 16.7838 77.2019 16.2005C77.2728 15.8543 77.355 15.1577 77.3542 14.9104C77.3531 14.5919 77.2613 13.7756 77.2034 13.5707C76.9913 12.8193 76.7893 12.3936 76.4265 11.9333C75.7969 11.1343 74.9167 10.4403 74.1949 10.1737C74.0814 10.1317 73.8928 10.0613 73.7757 10.0173C73.458 9.8977 72.8568 9.74914 72.4608 9.69228C71.9921 9.625 70.3829 9.59359 70.2569 9.64927ZM137.935 10.1327C137.915 10.1521 137.669 10.185 137.388 10.2058C136.364 10.2814 135.509 10.4655 134.372 10.8548C133.473 11.1624 133.223 11.2621 133.06 11.376C132.983 11.43 132.774 11.5468 132.595 11.6355C132.265 11.8001 131.348 12.3939 131.166 12.5606C131.111 12.6113 130.942 12.7532 130.791 12.8761C129.811 13.6696 128.797 15.0045 128.263 16.2005C127.963 16.8733 127.935 16.942 127.814 17.3127C127.499 18.271 127.419 18.8972 127.418 20.418C127.417 21.7073 127.454 22.0635 127.694 23.0478C127.867 23.7561 128.122 24.4614 128.416 25.0412C128.704 25.6098 129.464 26.7775 129.72 27.043C129.799 27.1254 129.965 27.3151 130.089 27.4647C130.366 27.7986 130.353 27.7868 130.69 28.0593C130.842 28.1818 130.995 28.3098 131.031 28.3436C131.541 28.8223 132.888 29.5664 133.764 29.853C134.411 30.0647 134.883 30.1954 135.173 30.2434C135.311 30.2662 135.57 30.3102 135.749 30.341C136.326 30.4405 137.244 30.4961 138.712 30.5205C139.986 30.5418 140.155 30.5355 140.227 30.4643C140.296 30.3953 140.308 30.2291 140.307 29.259C140.306 28.6379 140.285 28.1004 140.259 28.0593C140.219 27.9969 139.955 27.9796 138.619 27.952C136.835 27.9153 136.474 27.8828 135.608 27.6803C134.842 27.5011 134.09 27.1699 133.421 26.7169C132.774 26.2786 132.093 25.6176 131.696 25.0418C131.429 24.6544 130.935 23.8111 130.907 23.6929C130.89 23.6246 130.838 23.4907 130.79 23.3951C130.705 23.2249 130.435 22.1982 130.358 21.7577C130.291 21.3711 130.31 19.2353 130.383 18.9047C130.419 18.7409 130.468 18.5065 130.491 18.3837C130.597 17.8243 131.09 16.7343 131.528 16.0916C132.562 14.5762 134.316 13.4006 136.201 12.9592C137.041 12.7627 137.419 12.7247 138.92 12.6861C139.988 12.6585 140.22 12.6399 140.259 12.5783C140.285 12.5373 140.306 11.9994 140.307 11.3786C140.308 10.4211 140.296 10.2418 140.229 10.1754C140.162 10.1093 139.984 10.0974 139.06 10.0974C138.461 10.0974 137.954 10.1133 137.935 10.1327ZM142.311 10.1967C142.212 10.2952 142.211 10.362 142.211 20.3188C142.211 30.2756 142.212 30.3424 142.311 30.441C142.405 30.5343 142.478 30.5401 143.526 30.5394C144.14 30.539 144.674 30.5176 144.716 30.4916C144.781 30.4508 144.795 29.9332 144.822 26.5353C144.84 24.3852 144.877 22.4474 144.905 22.2291C145.015 21.3622 145.324 20.5435 145.748 19.9923C146.19 19.417 146.698 19.0438 147.295 18.8566C147.647 18.7461 147.782 18.7311 148.422 18.7316C149.201 18.7321 149.413 18.7719 149.877 19.0051C150.862 19.4996 151.372 20.338 151.657 21.9314C151.677 22.0406 151.706 24.0007 151.723 26.2873C151.749 29.9065 151.763 30.4507 151.828 30.4916C151.87 30.5176 152.404 30.539 153.018 30.5394C154.069 30.5401 154.138 30.5345 154.234 30.4401C154.334 30.341 154.334 30.2994 154.313 26.1605C154.294 22.2422 154.265 21.3496 154.137 20.5917C153.9 19.19 153.115 17.9354 152.012 17.1984C151.35 16.7556 150.81 16.5238 150.15 16.3992C149.985 16.3679 149.768 16.3216 149.669 16.2962C149.416 16.232 147.924 16.2384 147.634 16.3049C147.503 16.3351 147.142 16.4386 146.832 16.5348C146.27 16.7091 146.12 16.7927 145.208 17.4379C144.785 17.7369 144.816 18.0129 144.816 13.8983C144.816 10.6509 144.807 10.2448 144.737 10.1754C144.67 10.1091 144.489 10.0974 143.535 10.0974C142.478 10.0974 142.405 10.1033 142.311 10.1967ZM111.431 11.7813C110.627 12.1385 110.517 13.2665 111.242 13.7219C111.45 13.8521 111.519 13.8684 111.869 13.8684C112.308 13.8684 112.45 13.8155 112.69 13.5625C112.922 13.3169 112.959 13.2164 112.958 12.8173C112.958 12.551 112.934 12.4147 112.865 12.3054C112.534 11.7731 111.939 11.5556 111.431 11.7813ZM174.394 12.0027C173.934 12.2108 173.735 12.4404 173.544 12.9831C173.35 13.5366 173.569 14.2828 174.029 14.63C174.319 14.8494 174.649 14.96 175.012 14.96C175.946 14.96 176.573 14.3425 176.573 13.4219C176.573 12.4923 175.943 11.8788 174.996 11.8866C174.741 11.8886 174.575 11.9206 174.394 12.0027ZM87.0871 16.1981C87.032 16.2229 86.843 16.2447 86.6671 16.2466C86.4913 16.2485 86.2659 16.2705 86.1662 16.2954C86.0666 16.3204 85.8611 16.3675 85.7096 16.4002C85.2679 16.4956 84.4016 16.7916 84.1568 16.9308C84.0328 17.0013 83.8074 17.1265 83.6559 17.2091C83.4076 17.3444 82.9133 17.6927 82.7446 17.8513C82.7086 17.8851 82.5552 18.013 82.4037 18.1356C82.0528 18.4194 82.0793 18.3924 81.7226 18.8303C80.8402 19.9136 80.2141 21.2384 79.9875 22.502C79.9126 22.9193 79.9126 24.6649 79.9875 25.0822C80.0797 25.5964 80.3554 26.4873 80.5284 26.8302C80.8825 27.532 81.2559 28.049 81.8276 28.6294C82.6175 29.4311 83.2832 29.921 84.0066 30.2332C84.5365 30.4618 84.6476 30.5042 85.1285 30.661C85.6225 30.822 85.7158 30.8443 86.3357 30.9491C86.7483 31.0188 88.4259 31.0161 88.7651 30.9452C88.9166 30.9135 89.142 30.8683 89.266 30.8449C89.4799 30.8044 89.8658 30.6766 90.4598 30.4494C90.9893 30.247 92.1279 29.5077 92.3954 29.1929C92.5189 29.0475 92.5218 29.0257 92.5218 28.2638C92.5218 27.2129 92.4884 27.18 91.9444 27.6954C90.6566 28.9151 89.1976 29.5138 87.5128 29.5138C85.9998 29.5138 84.6616 29.0542 83.5057 28.1376C83.0558 27.7809 83.0236 27.7475 82.6418 27.2416C82.1639 26.6084 81.7426 25.7116 81.5923 25.0077C81.5106 24.625 81.4835 23.1198 81.5525 22.7997C81.6966 22.1318 81.8236 21.6695 81.9098 21.4992C81.961 21.398 82.003 21.2882 82.003 21.2554C82.003 21.0599 82.9192 19.7445 83.3268 19.3549C84.018 18.6942 85.0376 18.1377 86.0023 17.8945C86.586 17.7474 86.6715 17.7388 87.5301 17.7407C88.3693 17.7426 88.4801 17.7537 88.9655 17.884C89.2547 17.9616 89.6104 18.0707 89.7559 18.1263C90.4761 18.4016 91.3597 19.0944 91.9217 19.8245C92.5297 20.6143 92.9886 21.7875 93.134 22.9238C93.1619 23.1421 93.1991 24.9682 93.2165 26.9819C93.2439 30.1591 93.2581 30.6493 93.3233 30.6901C93.3646 30.716 93.6842 30.7375 94.0335 30.7379C94.5479 30.7385 94.6837 30.7237 94.7482 30.6598C94.8199 30.5887 94.8258 30.2134 94.8076 26.8764C94.7886 23.3883 94.7726 22.9538 94.6328 22.1051C94.4764 21.1558 93.9732 19.9341 93.38 19.0634C92.7357 18.1174 91.4562 17.1048 90.4227 16.7228C90.31 16.6811 90.1219 16.6108 90.0048 16.5665C89.603 16.4145 89.126 16.3138 88.4896 16.2465C87.761 16.1694 87.1945 16.1498 87.0871 16.1981ZM162.823 16.2982C162.768 16.3225 162.63 16.3439 162.516 16.3459C162.291 16.3497 161.417 16.5563 161.248 16.6457C161.19 16.6765 161.011 16.7434 160.85 16.7943C160.283 16.9736 159.69 17.3191 158.913 17.9234C158.608 18.1604 158.287 18.4446 158.201 18.555C158.114 18.6655 157.973 18.834 157.887 18.9295C157.522 19.3372 157.018 20.1718 156.817 20.701C156.778 20.8046 156.707 20.9899 156.661 21.1127C156.387 21.8297 156.271 22.5971 156.271 23.6929C156.271 24.7826 156.388 25.5609 156.656 26.2606C156.701 26.3766 156.772 26.5629 156.814 26.6746C157.072 27.3614 157.689 28.2655 158.314 28.8748C159.073 29.614 160.385 30.3174 161.496 30.5806C162.702 30.8665 164.113 30.873 165.152 30.5976C165.74 30.4418 165.799 30.4198 166.304 30.1683C166.867 29.8883 167.333 29.5839 167.406 29.4491C167.439 29.3878 167.453 28.9298 167.445 28.1973C167.429 26.8128 167.46 26.8527 166.78 27.3382C165.774 28.0571 165.099 28.2947 163.925 28.3421C163.319 28.3666 163.213 28.3535 162.347 28.1472C161.579 27.9641 160.614 27.4169 160.101 26.8726C159.918 26.6785 159.505 26.0931 159.375 25.8427C159.11 25.3328 158.896 24.3179 158.889 23.544C158.885 23.0189 159.083 22.0256 159.312 21.4202C159.641 20.5522 160.746 19.4479 161.617 19.1152C162.156 18.9099 162.28 18.8692 162.523 18.8194C162.909 18.74 164.43 18.7131 164.752 18.78C165.368 18.9082 165.38 18.912 166.08 19.2014C166.386 19.3284 167.131 19.9326 167.387 20.2619C167.857 20.8662 168.179 21.6154 168.383 22.5764C168.488 23.0698 168.522 23.9792 168.551 27.0315C168.579 29.9877 168.594 30.4509 168.659 30.4917C168.7 30.5176 169.234 30.539 169.848 30.5394C170.9 30.5401 170.968 30.5346 171.064 30.4399C171.164 30.3408 171.165 30.2997 171.143 27.2023C171.114 23.1514 171.068 22.5061 170.722 21.2864C170.628 20.9584 170.584 20.8429 170.356 20.3299C170.304 20.2132 170.261 20.0904 170.261 20.057C170.261 19.8946 169.349 18.5737 168.985 18.2082C168.782 18.0037 168.023 17.4474 167.632 17.2165C167.067 16.8828 166.531 16.6635 165.854 16.4896C165.647 16.4365 165.343 16.3696 165.177 16.3408C164.791 16.2736 162.955 16.2404 162.823 16.2982ZM184.061 16.2981C184.006 16.3224 183.889 16.3439 183.801 16.3459C183.628 16.3496 183.289 16.4322 182.805 16.5888C182.09 16.8197 181.176 17.39 180.623 17.9494C180.303 18.2724 179.695 19.1627 179.565 19.4981C179.347 20.058 179.312 20.1604 179.219 20.5173C179.015 21.2951 179.012 21.383 178.993 25.9338C178.977 29.9458 178.983 30.3904 179.055 30.4615C179.123 30.5286 179.295 30.5401 180.22 30.5394C180.818 30.539 181.34 30.5175 181.381 30.4916C181.447 30.4508 181.461 29.9376 181.49 26.585C181.508 24.4621 181.545 22.4797 181.571 22.1795C181.69 20.8469 182.107 19.998 182.96 19.3536C183.561 18.8986 184.112 18.731 185.005 18.731C185.931 18.731 186.362 18.8848 187.119 19.485C187.71 19.9533 188.093 20.6316 188.306 21.5841C188.343 21.749 188.371 23.276 188.39 26.1384C188.415 29.8912 188.429 30.4506 188.494 30.4916C188.536 30.5179 189.107 30.539 189.785 30.5394L191 30.5402L190.981 26.1862C190.97 23.6451 190.941 21.6875 190.911 21.4848C190.818 20.8421 190.712 20.3783 190.579 20.0335C190.534 19.9175 190.463 19.7306 190.421 19.6182C190.129 18.843 189.198 17.729 188.43 17.2373C187.763 16.8101 186.92 16.4724 186.19 16.3399C185.826 16.2738 184.189 16.2417 184.061 16.2981ZM100.812 16.4982C100.757 16.5217 100.585 16.5424 100.431 16.5443C100.277 16.5462 100.085 16.5676 100.005 16.5916C99.9254 16.6157 99.7586 16.6645 99.6346 16.6999C99.0525 16.8663 98.3139 17.3539 98.0158 17.7687C97.7017 18.2056 97.4869 18.5925 97.4042 18.8703C97.3579 19.0257 97.2999 19.2175 97.2752 19.2966C97.2505 19.3758 97.2303 19.649 97.2303 19.9037C97.2303 20.767 97.489 21.5261 97.9996 22.1612C98.586 22.8906 99.6686 23.422 101.413 23.8366C102.408 24.0731 102.485 24.0898 102.577 24.0898C102.624 24.0898 102.809 24.1335 102.989 24.1869C103.169 24.2402 103.479 24.3303 103.679 24.3869C104.609 24.651 104.795 24.7148 105.17 24.8986C106.069 25.3398 106.437 25.7348 106.677 26.5168C106.824 26.9978 106.74 27.7439 106.495 28.1375C106.356 28.359 105.975 28.6877 105.696 28.8265C105.454 28.9463 104.778 29.1258 104.368 29.1791C104.23 29.197 102.59 29.2259 100.722 29.2433C97.7822 29.2707 97.3204 29.2849 97.2793 29.3494C97.2532 29.3903 97.2315 29.6845 97.2311 30.0033C97.2305 30.4676 97.2461 30.5984 97.31 30.6617C97.3817 30.7327 97.7442 30.7388 100.929 30.7225C104.526 30.7041 104.669 30.6971 105.445 30.5005C106.222 30.3039 107.243 29.6826 107.623 29.1757C107.844 28.8824 108.106 28.3721 108.197 28.0593C108.233 27.9365 108.282 27.7712 108.306 27.6921C108.368 27.49 108.361 26.6681 108.295 26.3853C107.951 24.9203 107.436 24.2769 106.071 23.6096C105.578 23.3684 104.492 23.0197 103.567 22.8052C100.785 22.1603 100.166 21.9616 99.5476 21.5144C99.2898 21.3281 99.0128 20.9272 98.9102 20.5917C98.7096 19.9362 98.8903 19.0616 99.3202 18.607C99.5713 18.3414 99.6692 18.2798 100.035 18.1571L100.396 18.0364H103.822C107.182 18.0364 107.25 18.0344 107.348 17.9371C107.438 17.8489 107.449 17.7718 107.449 17.2425C107.449 16.7132 107.438 16.636 107.348 16.5478C107.25 16.4506 107.184 16.4486 104.08 16.452C102.338 16.454 100.867 16.4747 100.812 16.4982ZM111.155 16.5478C111.056 16.6461 111.055 16.7132 111.055 23.6149C111.055 29.8831 111.063 30.5906 111.134 30.6607C111.197 30.7235 111.338 30.7387 111.857 30.7387C112.375 30.7387 112.516 30.7235 112.579 30.6607C112.65 30.5906 112.658 29.8812 112.658 23.5936C112.658 17.306 112.65 16.5967 112.579 16.5265C112.516 16.464 112.377 16.4486 111.878 16.4486C111.322 16.4486 111.245 16.4592 111.155 16.5478ZM122.15 16.4982C122.095 16.5217 121.909 16.5424 121.738 16.5443C121.419 16.5479 121.219 16.5844 120.597 16.7527C119.494 17.0513 119.077 17.2423 118.248 17.8304C116.906 18.7825 115.899 20.379 115.538 22.1299C115.259 23.4826 115.447 25.5592 115.935 26.5132C116.006 26.6521 116.064 26.7946 116.064 26.8296C116.065 26.9306 116.668 27.876 116.911 28.1561C117.032 28.296 117.189 28.4838 117.26 28.5735C117.33 28.6631 117.644 28.9358 117.956 29.1794C118.943 29.949 120.152 30.4654 121.399 30.6489C121.592 30.6773 122.463 30.71 123.334 30.7215C124.743 30.7403 124.928 30.7337 125 30.6627C125.065 30.5982 125.08 30.4706 125.08 30.0033C125.079 29.6845 125.057 29.3903 125.031 29.3494C124.992 29.2877 124.754 29.2691 123.642 29.2406C121.996 29.1986 121.856 29.1851 121.073 28.9931C120.397 28.8273 119.599 28.4714 119.142 28.1324C118.39 27.5747 117.612 26.5505 117.344 25.7659C117.089 25.0219 116.997 24.4709 116.997 23.6929C116.997 23.1266 117.017 22.9422 117.162 22.1795C117.298 21.4621 117.689 20.6614 118.227 19.9963C118.649 19.4742 118.67 19.4538 119.193 19.0664C119.812 18.608 120.534 18.2775 121.248 18.1247C121.386 18.0953 122.283 18.0578 123.241 18.0414C124.713 18.0162 124.991 18 125.031 17.9371C125.057 17.8962 125.079 17.5796 125.08 17.2336C125.08 16.7271 125.065 16.5893 125.002 16.5265C124.934 16.4594 124.738 16.4491 123.587 16.452C122.852 16.454 122.205 16.4747 122.15 16.4982ZM173.846 16.6258C173.776 16.6959 173.768 17.3918 173.768 23.544C173.768 29.6962 173.776 30.3921 173.846 30.4622C173.913 30.5284 174.093 30.5402 175.039 30.5402C175.858 30.5402 176.172 30.5238 176.225 30.4782C176.336 30.3826 176.284 16.6664 176.172 16.5964C176.131 16.5705 175.608 16.549 175.011 16.5486C174.09 16.5479 173.913 16.5596 173.846 16.6258Z" fill="#47464F"/>
</svg>
