<svg width="184" height="41" viewBox="0 0 184 41" fill="none" xmlns="http://www.w3.org/2000/svg">
<path fill-rule="evenodd" clip-rule="evenodd" d="M10.4167 0.157258C9.76014 0.405028 9.51101 0.559369 9.06992 0.991679C8.4352 1.61376 7.87821 2.83082 7.87821 3.59558C7.87821 3.9922 8.10108 4.72444 8.39625 5.29754C8.62909 5.7495 9.27204 6.41765 12.8063 9.88017C16.4732 13.4727 17.0231 13.9784 17.6412 14.3272C18.0248 14.5436 18.516 14.7701 18.7326 14.8305C18.9493 14.8908 19.2408 14.9744 19.3803 15.0161C19.5199 15.0577 20.0841 15.0918 20.6342 15.0918C21.47 15.0918 21.7418 15.0564 22.2893 14.8763C23.5791 14.452 24.4755 13.8532 25.8054 12.5279C26.6086 11.7276 26.6105 11.6081 25.823 11.406C25.5101 11.3256 25.0768 11.1722 24.8601 11.065C24.5865 10.9295 22.9294 9.37107 19.4329 5.96063C16.6646 3.26056 14.1934 0.887183 13.9414 0.686514C13.2664 0.149107 12.7457 -0.00943783 11.6872 0.000428351C11.0828 0.00609068 10.6884 0.0547355 10.4167 0.157258ZM28.0903 0.330559C27.8689 0.413263 27.5003 0.607327 27.2712 0.76184C26.6437 1.18497 22.4091 5.3684 22.4091 5.56521C22.4091 5.66387 22.9155 6.22685 23.6619 6.95815C25.3529 8.61463 25.2727 8.55286 26.0988 8.83469C27.6783 9.37347 29.0706 9.09396 30.2452 8.00207C30.3905 7.86704 30.7251 7.5828 30.9889 7.37047C31.6387 6.84739 31.7541 6.73139 32.2895 6.06315C32.9204 5.27575 33.0888 4.79128 33.0872 3.76837C33.0846 2.1232 32.4414 1.14482 30.8379 0.347203C30.5223 0.190202 30.3276 0.165065 29.4811 0.172014C28.7674 0.177934 28.3811 0.221945 28.0903 0.330559ZM2.71361 7.87862C2.03792 8.13359 1.79667 8.28776 1.27802 8.79609C0.720157 9.34284 0.482409 9.73998 0.298409 10.4322C0.0303746 11.4407 0.186364 12.3384 0.806904 13.3594C1.1728 13.9614 5.53024 18.2662 5.77377 18.2662C5.97431 18.2662 8.24665 16.0753 8.66656 15.4772C9.16683 14.7645 9.29401 14.3083 9.30023 13.2044C9.30566 12.2367 9.29979 12.2063 8.99219 11.6172C8.81966 11.2869 8.58708 10.9201 8.47529 10.8022C8.36351 10.6842 8.09495 10.3754 7.87847 10.1158C7.34766 9.47943 6.43545 8.61034 5.96582 8.29368C5.32558 7.86197 4.78505 7.71261 3.89656 7.72179C3.37581 7.72719 2.97359 7.78047 2.71361 7.87862ZM36.3468 8.74667C36.1409 8.83632 35.7864 9.0339 35.559 9.18576C35.1851 9.43559 33.4843 11.0066 32.7953 11.7387C32.6436 11.8998 32.3273 12.2087 32.0923 12.425C31.8573 12.6413 31.5422 12.9502 31.392 13.1114C31.2418 13.2725 30.9267 13.5814 30.6918 13.7977C30.4567 14.014 30.1416 14.3229 29.9915 14.4841C29.8413 14.6452 29.5261 14.954 29.2912 15.1704C29.0562 15.3867 28.741 15.6951 28.5909 15.8557C28.4407 16.0163 28.1349 16.3252 27.9114 16.5421C27.1201 17.3099 26.4209 18.3865 26.1788 19.2099C26.1163 19.4222 26.0304 19.7079 25.9879 19.8447C25.869 20.2272 25.8962 21.6359 26.0323 22.1441C26.4308 23.6311 26.8704 24.3407 28.2113 25.6612C29.3569 26.7893 29.4415 26.8077 29.717 25.9875C30.1258 24.7716 30.0737 24.8298 35.5402 19.4666C40.2194 14.8757 40.7325 14.345 40.996 13.8232C41.4095 13.0047 41.5519 12.3473 41.4203 11.8653C41.3634 11.6567 41.3168 11.4085 41.3168 11.3136C41.3168 11.0462 40.7531 10.0198 40.4304 9.69949C40.0137 9.28605 39.4383 8.91688 38.9224 8.73209C38.2972 8.50808 36.8763 8.51614 36.3468 8.74667ZM61.4063 8.99753C61.31 9.03974 61.0644 9.07697 60.8604 9.08032C60.479 9.0865 59.8556 9.20506 59.393 9.3594C56.8324 10.2138 55.6806 10.8779 54.1396 12.3881C53.1453 13.3626 52.6129 14.0538 52.1325 14.9941C51.7118 15.8173 51.2478 17.0651 51.1069 17.7514C50.7496 19.4927 50.7499 21.5121 51.1075 23.2422C51.3223 24.2814 52.0432 25.8594 52.8599 27.0785C53.9992 28.779 56.3282 30.5729 58.1282 31.1365C58.4069 31.2237 58.7463 31.3492 58.8825 31.4153C59.0188 31.4814 59.3667 31.5838 59.6556 31.6428C59.9444 31.7019 60.2596 31.7698 60.3559 31.7936C60.7232 31.8848 62.2253 32.0133 62.9382 32.0144C64.1283 32.0165 65.5191 31.8137 66.4901 31.4969C67.6407 31.1214 69.4856 30.0692 69.6271 29.7078C69.6553 29.6357 69.6784 29.4114 69.6784 29.2093C69.6784 28.8552 69.5288 28.5721 69.1548 28.2181C69.0799 28.1474 68.8429 27.8771 68.6279 27.6176C67.9839 26.8399 67.442 26.4174 67.0878 26.4168C66.9869 26.4167 66.6631 26.5693 66.3682 26.7561C65.5711 27.2611 65.3307 27.3687 64.5138 27.586C63.4711 27.8635 62.0537 27.8633 61.0124 27.5856C59.7274 27.2429 58.6342 26.5908 57.7315 25.6286C57.1808 25.0416 56.548 24.1461 56.548 23.9538C56.548 23.888 56.4826 23.7107 56.4026 23.5596C56.3225 23.4086 56.1661 22.9569 56.055 22.5558C55.7734 21.5388 55.7598 19.5304 56.028 18.5434C56.41 17.1375 56.6889 16.5418 57.3628 15.6924C57.898 15.0179 58.0777 14.8548 58.8677 14.3257C59.8878 13.6426 60.1684 13.5395 62.1637 13.1147C63.088 12.9179 64.993 13.3113 65.9106 13.8883C66.1305 14.0266 66.4577 14.2001 66.6376 14.2738C67.0897 14.4589 67.4265 14.3091 67.9794 13.6769C68.2158 13.4068 68.542 13.0451 68.7045 12.8733C69.2219 12.326 69.5033 11.8277 69.5033 11.4584C69.5033 10.9865 69.0636 10.5965 67.9127 10.0474C66.3232 9.28897 66.3092 9.28442 64.9077 9.07697C64.0941 8.95652 61.6276 8.90058 61.4063 8.99753ZM100.447 8.9977C100.351 9.03983 100.145 9.07697 99.9889 9.08032C99.2305 9.09645 97.3581 9.68584 96.1142 10.2999C95.1585 10.7717 93.8973 11.6611 93.2785 12.2995C92.4162 13.1892 91.3767 14.7704 90.9944 15.7741C90.9216 15.965 90.7984 16.2855 90.7207 16.486C90.3301 17.4936 90.065 19.1069 90.0618 20.4968C90.0606 21.0095 90.2194 22.5861 90.3211 23.0706C90.5988 24.3941 91.5913 26.5506 92.369 27.5206C93.4857 28.9132 94.7541 29.9543 96.1958 30.6614C97.657 31.3781 98.9766 31.7744 100.403 31.9253C103.605 32.2638 106.527 31.5863 109.044 29.9218C109.857 29.3839 111.222 28.0467 111.771 27.2495C112.585 26.0662 113.255 24.5743 113.532 23.3279C113.589 23.0684 113.672 22.7165 113.716 22.5459C113.821 22.1395 113.82 18.6764 113.715 18.2761C113.67 18.1055 113.585 17.7342 113.525 17.4511C113.466 17.168 113.362 16.8271 113.294 16.6935C113.227 16.56 113.099 16.2278 113.01 15.9554C112.432 14.1818 110.715 12.1086 108.763 10.8271C107.485 9.98784 105.641 9.29094 104.124 9.07354C103.303 8.95592 100.667 8.90153 100.447 8.9977ZM74.6125 9.42246C74.0089 9.78322 74.0552 8.86464 74.0552 20.4816V30.9807L74.3528 31.2724L74.6504 31.5641H80.654H86.6575L86.9263 31.3281C87.1389 31.1416 87.2854 30.8316 87.6259 29.8482C87.8628 29.164 88.0576 28.5347 88.0588 28.4498C88.0624 28.1852 87.8021 27.7889 87.5095 27.6142C87.2428 27.4548 87.0433 27.4466 83.3677 27.4464C79.5391 27.446 79.5039 27.4444 79.2648 27.26C78.7638 26.8738 78.7821 27.2158 78.7821 18.2376C78.7821 9.98071 78.7818 9.96699 78.5993 9.73964C78.249 9.30321 78.0422 9.25791 76.4011 9.25825C75.0648 9.25851 74.8546 9.27781 74.6125 9.42246ZM115.901 9.4826C115.454 9.85142 115.36 10.1052 115.5 10.5634C115.566 10.7767 115.705 11.115 115.809 11.3152C115.913 11.5155 116.069 11.897 116.156 12.163C116.243 12.4291 116.413 12.8591 116.533 13.1186C116.654 13.3781 116.88 13.88 117.035 14.2339C117.191 14.5878 117.416 15.0897 117.537 15.3492C117.657 15.6087 117.825 16.0334 117.91 16.2929C117.995 16.5525 118.204 17.0543 118.373 17.4082C118.542 17.7621 118.768 18.264 118.874 18.5235C118.981 18.7831 119.177 19.2463 119.311 19.5531C119.445 19.8598 119.642 20.323 119.749 20.5826C119.856 20.8421 120.053 21.3054 120.186 21.6121C120.32 21.9188 120.517 22.3821 120.624 22.6416C120.731 22.9011 120.928 23.3644 121.062 23.6711C121.196 23.9778 121.393 24.4411 121.5 24.7006C121.606 24.9602 121.808 25.4331 121.947 25.7516C122.086 26.0701 122.314 26.5913 122.453 26.9098C122.592 27.2283 122.793 27.7012 122.9 27.9608C123.007 28.2203 123.204 28.6836 123.338 28.9903C123.62 29.6363 123.89 30.2874 124.041 30.6837C124.099 30.8366 124.299 31.0972 124.486 31.2628L124.826 31.5641L127.474 31.5637C130.612 31.5634 130.503 31.5925 130.894 30.6545C131.03 30.329 131.292 29.7345 131.476 29.3334C131.66 28.9324 131.889 28.4112 131.984 28.1752C132.314 27.3626 132.549 26.801 132.792 26.2449C132.926 25.9382 133.123 25.4749 133.229 25.2154C133.336 24.9559 133.533 24.4926 133.667 24.1859C133.801 23.8792 133.998 23.4159 134.105 23.1564C134.211 22.8968 134.408 22.4336 134.542 22.1268C134.676 21.8201 134.873 21.3569 134.98 21.0973C135.087 20.8378 135.284 20.3745 135.418 20.0678C135.552 19.7611 135.749 19.2978 135.855 19.0383C135.962 18.7788 136.159 18.3155 136.293 18.0088C136.521 17.4879 136.612 17.2676 137.09 16.0999C137.191 15.8522 137.423 15.3213 137.606 14.9202C137.789 14.5192 138.025 13.9787 138.132 13.7191C138.238 13.4596 138.435 12.9963 138.569 12.6896C138.703 12.3829 138.9 11.9196 139.006 11.6601C139.113 11.4006 139.275 11.0231 139.366 10.8213C139.457 10.6195 139.532 10.3763 139.532 10.2809C139.532 9.99599 139.279 9.60468 138.98 9.42606C138.727 9.27447 138.531 9.25851 136.923 9.25825C135.031 9.25791 134.87 9.28708 134.487 9.70017C134.279 9.92435 134.087 10.2724 133.897 10.7704C133.827 10.953 133.652 11.4113 133.509 11.7888C133.365 12.1663 133.161 12.6875 133.054 12.947C132.948 13.2065 132.805 13.5672 132.736 13.7486C132.668 13.9299 132.531 14.2334 132.432 14.4231C132.334 14.6127 132.18 14.9908 132.091 15.2634C132.002 15.536 131.849 15.9142 131.75 16.1038C131.652 16.2934 131.515 16.5969 131.446 16.7783C131.378 16.9596 131.234 17.3203 131.128 17.5798C131.021 17.8393 130.838 18.3158 130.722 18.6386C130.606 18.9613 130.43 19.3807 130.332 19.5705C130.233 19.7602 130.079 20.1384 129.99 20.411C129.902 20.6835 129.744 21.0696 129.64 21.2689C129.537 21.4682 129.379 21.8543 129.29 22.1268C129.201 22.3994 129.044 22.7855 128.94 22.9848C128.836 23.1841 128.679 23.5648 128.591 23.8309C128.503 24.0969 128.246 24.6932 128.021 25.1558C127.723 25.7685 127.573 25.9898 127.469 25.9703C127.317 25.9415 127.306 25.9232 126.771 24.7435C126.203 23.4917 126.127 23.3087 125.964 22.8132C125.879 22.5537 125.71 22.129 125.589 21.8695C125.381 21.424 125.198 20.9915 124.816 20.0464C124.725 19.8222 124.572 19.4458 124.476 19.2099C124.379 18.974 124.222 18.5879 124.126 18.352C124.029 18.116 123.867 17.7203 123.765 17.4726C123.663 17.2249 123.506 16.8388 123.415 16.6147C123.324 16.3905 123.171 16.0141 123.075 15.7782C122.979 15.5422 122.826 15.1659 122.735 14.9417C122.398 14.1068 122.174 13.5752 121.932 13.0328C121.795 12.7261 121.599 12.2435 121.495 11.9604C120.931 10.4157 120.608 9.76134 120.279 9.48947L119.998 9.25791H118.086H116.173L115.901 9.4826ZM143.507 9.42014C143.358 9.50902 143.151 9.68782 143.047 9.81745L142.858 10.0532V20.384C142.858 31.6492 142.828 30.9831 143.35 31.3849C143.581 31.5635 143.609 31.5641 151.1 31.5641H158.617L158.925 31.2852C159.176 31.0576 159.304 30.8017 159.623 29.8911C160.119 28.4699 160.126 28.2203 159.675 27.7791L159.336 27.446H153.888H148.44L148.1 27.113L147.76 26.7798V24.8338C147.76 23.6038 147.795 22.824 147.855 22.7145C148.071 22.3184 148.292 22.2984 152.439 22.2984H156.336L156.602 22.0625C156.748 21.9328 156.949 21.6142 157.05 21.3547C157.808 19.3948 157.872 19.0554 157.557 18.6621C157.163 18.1724 157.247 18.1804 152.545 18.1804C148.416 18.1804 148.208 18.1728 148.011 18.0165C147.806 17.8546 147.804 17.8302 147.777 15.9748C147.752 14.145 147.756 14.0907 147.945 13.8548C148.334 13.37 148.258 13.376 154.018 13.376H159.317L159.625 13.0971C159.877 12.8695 160.005 12.6136 160.323 11.703C160.82 10.2818 160.826 10.0322 160.376 9.59096L160.036 9.25791L151.907 9.25825C144.099 9.25851 143.767 9.26494 143.507 9.42014ZM165.65 9.42246C165.122 9.73792 165.092 9.84199 165.092 11.3875V12.7926L165.39 13.0843L165.688 13.376L171.189 13.3785C176.231 13.3808 176.739 13.394 177.274 13.537C178.566 13.8831 179.098 14.7361 179.098 16.4645C179.098 18.1929 178.566 19.0459 177.274 19.392C176.739 19.535 176.231 19.5483 171.192 19.5506C167.593 19.5522 165.635 19.5836 165.525 19.6414C165.091 19.8691 165.092 19.8501 165.092 25.6057V30.9807L165.39 31.2724L165.688 31.5641H167.414H169.14L169.479 31.231L169.819 30.8979L169.819 27.735C169.819 24.1892 169.831 24.1181 170.432 23.819C170.703 23.684 170.965 23.6693 172.724 23.6903L174.71 23.714L174.982 23.9693C175.131 24.1099 175.509 24.7083 175.821 25.2991C176.134 25.8901 176.571 26.6824 176.794 27.0599C177.259 27.847 177.874 28.9319 178.519 30.1028C178.765 30.5497 179.108 31.0611 179.281 31.2396L179.596 31.5641H181.238H182.88L183.177 31.2724C183.679 30.7802 183.668 30.746 181.804 27.0864C180.04 23.6214 180.033 23.602 180.36 23.1129C180.426 23.0133 180.744 22.7807 181.067 22.5958C182.262 21.911 183.177 20.7658 183.588 19.4406C183.962 18.2368 184 17.9615 184 16.4743C184 15.2258 183.971 14.918 183.789 14.2234C183.11 11.6324 181.51 10.0276 179.098 9.51658C178.833 9.46047 178.474 9.37939 178.3 9.33624C178.124 9.29274 175.304 9.25808 171.954 9.25825C166.172 9.25851 165.913 9.26529 165.65 9.42246ZM102.788 13.1174C104.873 13.5899 105.196 13.7082 105.955 14.2761C107.445 15.3905 108.342 16.8121 108.744 18.6951C108.874 19.3012 108.875 21.6842 108.746 22.2984C108.555 23.2096 108.129 24.2058 107.605 24.9671C107.055 25.7657 106.663 26.1528 105.878 26.6713C105.063 27.2097 104.66 27.4016 104.08 27.5278C103.815 27.5853 103.456 27.6677 103.282 27.7108C103.108 27.7539 102.478 27.788 101.881 27.7866C101.027 27.7845 100.64 27.7419 100.053 27.5854C97.5175 26.9089 95.803 25.0478 95.222 22.3413C95.1713 22.1054 95.1122 21.3228 95.0906 20.6021C95.0544 19.3934 95.0696 19.2207 95.2864 18.3719C95.6446 16.9698 96.2008 15.9563 97.0983 15.0696C97.9812 14.1975 98.9112 13.648 99.9461 13.387C100.345 13.2866 100.798 13.2016 100.953 13.1984C101.108 13.195 101.314 13.1592 101.41 13.1186C101.652 13.0166 102.34 13.016 102.788 13.1174ZM11.9163 14.4348C11.8627 14.4981 11.7384 14.7973 11.6402 15.0997C11.5419 15.4021 11.3255 15.8507 11.1593 16.0965C10.9931 16.3425 8.59119 18.7664 5.82182 21.4831C0.794211 26.4149 0.785896 26.4237 0.393211 27.1899C0.0280993 27.9024 0 28.005 0 28.6243C0 29.6311 0.423497 30.6726 1.10417 31.3398C1.78494 32.0069 2.84753 32.422 3.87485 32.422C4.50695 32.422 4.6112 32.3945 5.34081 32.0353C6.11979 31.6519 6.16015 31.6155 10.1754 27.6778C14.5506 23.3871 14.7338 23.1737 15.1771 21.8517C15.6299 20.5008 15.6295 19.4616 15.1754 18.1072C14.8988 17.2827 14.7713 17.0475 14.238 16.3787C13.6829 15.6827 12.2882 14.3197 12.131 14.3197C12.0665 14.3197 11.97 14.3715 11.9163 14.4348ZM34.3732 23.7006C32.8254 25.2046 32.4198 25.7605 32.1614 26.7328C31.8611 27.8628 32.158 29.2971 32.8419 30.0198C32.9535 30.1378 33.2216 30.4466 33.4377 30.7061C33.6538 30.9657 34.1143 31.4484 34.4611 31.7789C36.0735 33.3154 37.6018 33.658 39.2241 32.8469C40.011 32.4535 41.1418 31.0924 41.1418 30.5387C41.1418 30.4433 41.1889 30.1925 41.2466 29.9811C41.3298 29.6763 41.3279 29.5031 41.237 29.1434C40.9951 28.1852 40.8391 27.8419 40.3825 27.2627C39.7106 26.4105 35.8342 22.6416 35.6296 22.6416C35.534 22.6416 34.9994 23.0923 34.3732 23.7006ZM19.1703 26.0292C18.5137 26.2062 17.4066 26.8092 16.8532 27.2911C16.0242 28.013 15.0617 29.0206 15.0588 29.1695C15.0562 29.3016 15.3903 29.505 15.6098 29.505C15.6691 29.505 16.0043 29.6397 16.3547 29.8043C16.9382 30.0783 17.2128 30.3191 19.6082 32.6569C24.9942 37.9134 27.4531 40.2525 27.8085 40.4574C28.4665 40.8371 29.0578 41.0014 29.7609 41C30.8055 40.998 31.5559 40.683 32.3349 39.9195C33.1372 39.1333 33.4361 38.4254 33.4361 37.3122C33.4361 36.5757 33.332 36.1465 32.9976 35.5041C32.8122 35.1479 25.086 27.5077 24.368 26.9706C23.8293 26.5676 23.0242 26.1727 22.4342 26.022C21.8497 25.8728 19.7331 25.8775 19.1703 26.0292ZM13.2617 31.8791C12.7722 31.9536 12.2129 32.1724 11.7525 32.4697C11.1346 32.8685 8.8833 35.0932 8.65649 35.5288C8.40483 36.0124 8.22835 36.7226 8.22835 37.2524C8.22835 37.7483 8.55267 38.7233 8.87612 39.1996C9.30601 39.8328 10.049 40.4009 10.7979 40.6692C11.737 41.0057 13.1692 40.7949 14.1172 40.1807C14.6571 39.8308 18.9952 35.5256 18.9952 35.3396C18.9952 35.1221 16.3852 32.563 15.9324 32.3366C15.1865 31.9637 14.0197 31.7638 13.2617 31.8791Z" fill="#40455B"/>
</svg>
